<?xml version="1.0" encoding="UTF-8" standalone="no"?>
<!DOCTYPE svg PUBLIC "-//W3C//DTD SVG 1.1//EN" "http://www.w3.org/Graphics/SVG/1.1/DTD/svg11.dtd">
<svg version="1.1" xmlns="http://www.w3.org/2000/svg" xmlns:xlink="http://www.w3.org/1999/xlink" preserveAspectRatio="xMidYMid meet" width="360" height="240" viewBox="0 0 360 240"><defs><path d="M134.71571386990135 169.64250660472217 C138.6892702590419 169.64250660472217 141.91529390087362 172.86853024655383 141.91529390087362 176.84208663569441 C141.91529390087362 176.84208663569441 141.91529390087362 176.84208663569441 141.91529390087362 176.84208663569441 C141.91529390087362 180.815643024835 138.6892702590419 184.0416666666667 134.71571386990135 184.0416666666667 C127.57739318403671 184.0416666666667 70.47082769711959 184.0416666666667 63.33250701125496 184.0416666666667 C59.35895062211438 184.0416666666667 56.13292698028269 180.815643024835 56.13292698028269 176.84208663569441 C56.13292698028269 176.84208663569441 56.13292698028269 176.84208663569441 56.13292698028269 176.84208663569441 C56.13292698028269 172.86853024655383 59.35895062211438 169.64250660472217 63.33250701125496 169.64250660472217 C70.47082769711959 169.64250660472217 127.57739318403671 169.64250660472217 134.71571386990135 169.64250660472217  Z " id="ynOCchNAc0"></path><linearGradient id="gradientGgpxYOekbm" gradientUnits="userSpaceOnUse" x1="99.02411044057814" y1="162.22093797727112" x2="113.45568428325058" y2="192.77845115112254"><stop style="stop-color:rgba(255,200,224,1)" offset="0%"></stop><stop style="stop-color:rgba(255,220,235,1)" offset="100%"></stop></linearGradient><path d="M180.8042479799447 84.93932443490144 C180.8042479799447 87.07879016506783 180.8042479799447 104.19451600639889 180.8042479799447 106.33398173656528 C180.8042479799447 106.822520974708 180.40761610213417 107.21915285251853 179.91907686399145 107.21915285251853 C179.91907686399145 107.21915285251853 179.91907686399145 107.21915285251853 179.91907686399145 107.21915285251853 C179.43053762584873 107.21915285251853 179.0339057480382 106.822520974708 179.0339057480382 106.33398173656528 C179.0339057480382 104.19451600639889 179.0339057480382 87.07879016506783 179.0339057480382 84.93932443490144 C179.0339057480382 84.45078519675872 179.43053762584873 84.05415331894818 179.91907686399145 84.05415331894818 C180.40761610213417 84.05415331894818 180.8042479799447 84.45078519675872 180.8042479799447 84.93932443490144  Z " id="JEiidQymvl"></path><path d="M302.1740529736816 163.32315182244116 L303.3126534388705 163.804689971686 L304.3526286532863 164.45042779653528 L305.27758501072094 165.24397169078117 L306.07112890496677 166.16892804821583 L306.716866729816 167.2089032626315 L307.19840487906094 168.34750372782054 L307.4993497464936 169.56833583757484 L307.6033077259061 170.85500598568677 L307.4993497464935 172.14167613379874 L307.19840487906094 173.36250824355312 L306.7168667298161 174.501108708742 L306.0711289049668 175.54108392315774 L305.27758501072094 176.4660402805924 L304.3526286532862 177.25958417483827 L303.3126534388704 177.90532199968754 L302.1740529736817 178.3868601489324 L300.9532208639273 178.68780501636502 L299.6665507158153 178.79176299577762 L220.9742985287642 178.79176299577762 L219.68762838065226 178.68780501636502 L218.46679627089787 178.38686014893239 L217.32819580570893 177.90532199968757 L216.28822059129325 177.25958417483832 L215.36326423385856 176.4660402805924 L214.5697203396127 175.5410839231577 L213.92398251476337 174.50110870874198 L213.44244436551864 173.36250824355315 L213.141499498086 172.14167613379877 L213.03754151867335 170.85500598568677 L213.141499498086 169.56833583757484 L213.4424443655186 168.34750372782048 L213.9239825147634 167.20890326263154 L214.56972033961273 166.16892804821586 L215.36326423385856 165.24397169078117 L216.28822059129322 164.45042779653528 L217.32819580570893 163.804689971686 L218.46679627089793 163.32315182244122 L219.68762838065226 163.02220695500856 L220.9742985287642 162.91824897559593 L274.0007174480435 162.91824897559593 L274.0007174480435 157.4468328608835 L225.9616172801622 157.4468328608835 L224.46308457307998 157.32575720482623 L223.04123076773016 156.9752588836069 L221.7151488345414 156.41443086765415 L220.50393174394247 155.66236612739684 L219.426672466362 154.73815763326357 L218.5024639722287 153.6608983556831 L217.75039923197136 152.4496812650841 L217.18957121601878 151.12359933189543 L216.83907289479933 149.7017455265456 L216.71799723874207 148.20321281946343 L216.83907289479936 146.7046801123813 L217.1895712160187 145.2828263070315 L217.7503992319714 143.95674437384275 L218.50246397222875 142.74552728324383 L219.426672466362 141.66826800566335 L220.50393174394247 140.7440595115301 L221.7151488345414 139.99199477127272 L223.04123076773024 139.4311667553201 L224.46308457307998 139.0806684341007 L225.9616172801622 138.9595927780435 L272.2886039853296 138.9595927780435 L272.2886039853296 123.82728541794783 L249.8491904633006 123.82728541794783 L249.12516621821388 123.76878705480839 L248.43818980243276 123.59944188054185 L247.79748608868488 123.32847476787575 L247.2122799496981 122.96511058953803 L246.69179625819987 122.51857421825618 L246.24525988691806 121.998090526758 L245.88189570858037 121.41288438777113 L245.61092859591437 120.77218067402336 L245.44158342164772 120.0852042582422 L245.38308505850824 119.36118001315548 L245.44158342164772 118.63715576806875 L245.61092859591434 117.95017935228768 L245.88189570858037 117.30947563853978 L246.2452598869181 116.72426949955296 L246.69179625819987 116.20378580805477 L247.21227994969803 115.75724943677295 L247.79748608868488 115.39388525843518 L248.43818980243284 115.12291814576922 L249.1251662182139 114.95357297150262 L249.8491904633006 114.89507460836316 L294.1302352730432 114.89507460836316 L294.85425951812994 114.95357297150261 L295.541235933911 115.12291814576919 L296.18193964765885 115.39388525843518 L296.76714578664576 115.75724943677298 L297.28762947814386 116.20378580805477 L297.7341658494257 116.72426949955295 L298.0975300277634 117.30947563853977 L298.3684971404296 117.9501793522877 L298.5378423146961 118.63715576806877 L298.59634067783554 119.36118001315548 L298.5378423146961 120.0852042582422 L298.36849714042955 120.77218067402333 L298.09753002776347 121.4128843877712 L297.7341658494258 121.99809052675802 L297.28762947814414 122.51857421825619 L296.76714578664576 122.965110589538 L296.1819396476588 123.32847476787575 L295.5412359339111 123.59944188054185 L294.8542595181299 123.7687870548084 L294.1302352730432 123.82728541794783 L282.9551731778194 123.82728541794783 L281.8311731778195 123.91811000663893 L280.6669818163095 124.20509247716575 L279.58120694588035 124.66428956832104 L278.5894815881236 125.28006825851372 L277.7074387646303 126.03679552615236 L276.95071149699163 126.91883834964574 L276.334932806799 127.9105637074025 L275.8757357156436 128.99633857783147 L275.5887532451168 130.1605299393413 L275.4896184168098 131.38750477034074 L275.5887532451168 132.61447960134018 L275.8757357156437 133.77867096285001 L276.3349328067989 134.86444583327892 L276.95071149699163 135.8561711910357 L277.7074387646303 136.73821401452915 L278.58948158812365 137.4949412821677 L279.58120694588035 138.11071997236033 L280.66698181630943 138.56991706351573 L281.8311731778195 138.85689953404255 L283.05814800881865 138.95603436234956 L283.2618376096581 138.95603436234956 L283.2618376096581 138.9595927780435 L317.6113022202303 138.9595927780435 L319.1098349273125 139.0806684341007 L320.53168873266225 139.43116675532005 L321.8577706658509 139.99199477127274 L323.0689877564499 140.7440595115301 L324.1462470340304 141.66826800566335 L325.0704555281638 142.7455272832438 L325.8225202684209 143.95674437384275 L326.38334828437377 145.28282630703154 L326.73384660559304 146.7046801123813 L326.8549222616505 148.20321281946343 L326.73384660559304 149.7017455265456 L326.3833482843737 151.12359933189538 L325.82252026842093 152.4496812650841 L325.07045552816385 153.66089835568312 L324.14624703403035 154.73815763326357 L323.06898775644987 155.66236612739684 L321.85777066585086 156.41443086765415 L320.5316887326623 156.97525888360693 L319.1098349273125 157.3257572048262 L317.6113022202303 157.4468328608835 L290.9765187915172 157.4468328608835 L290.7905187915172 157.4618832728315 L290.3681031930517 157.56601209223757 L289.97414026147965 157.73262732448114 L289.61430228779216 157.9560566785718 L289.29426156297956 158.23062786351878 L289.01969037803264 158.55066858833135 L288.79626102394195 158.91050656201892 L288.6296457916983 159.3044694935908 L288.5255169722923 159.72688509205634 L288.4895468567146 160.17208106642482 L288.52551697229234 160.61727704079334 L288.62964579169835 161.03969263925893 L288.79626102394195 161.4336555708307 L289.0196903780326 161.7934935445183 L289.29426156297956 162.1135342693309 L289.61430228779216 162.38810545427788 L289.9741402614797 162.61153480836848 L290.36810319305164 162.77815004061216 L290.7905187915171 162.88227886001818 L291.23571476588563 162.91824897559587 L299.6665507158153 162.91824897559593 L300.9532208639273 163.02220695500856 L302.1740529736816 163.32315182244116  Z " id="MEbRPCA45p"></path><linearGradient id="gradientSus1zNZmUg" gradientUnits="userSpaceOnUse" x1="308.65005569648343" y1="186.89850725921798" x2="256.5090379633636" y2="112.44054641565371"><stop style="stop-color:rgba(255,220,235,1)" offset="0%"></stop><stop style="stop-color:rgba(255,200,224,1)" offset="100%"></stop></linearGradient><path d="M46.86822109792972 178.97583993805546 C46.86822109792972 177.5040665394048 45.67332782991372 176.30917327138877 44.20155443126304 176.30917327138877 C42.72978103261237 176.30917327138877 41.53488776459637 177.5040665394048 41.53488776459637 178.97583993805546 C41.53488776459637 180.44761333670613 42.72978103261237 181.64250660472212 44.20155443126304 181.64250660472212 C45.67332782991372 181.64250660472212 46.86822109792972 180.44761333670613 46.86822109792972 178.97583993805546  Z " id="Gc2fqBbGIV"></path><path d="M267.34356571204734 205.09104783430155 L267.4498053280281 205.13597880844034 L267.54684249847315 205.19623079378007 L267.63314758196583 205.2702741489044 L267.70719093709016 205.3565792323971 L267.76744292242984 205.453616402842 L267.8123738965687 205.55985601882293 L267.84045421809066 205.67376843892364 L267.8501542455793 205.793824021728 L267.8501542455793 207.2538874194421 L269.3102176432934 207.2538874194421 L269.43027322609777 207.26358744693076 L269.5441856461985 207.29166776845273 L269.65042526217934 207.3365987425915 L269.7474624326243 207.39685072793125 L269.83376751611695 207.47089408305555 L269.90781087124134 207.55719916654826 L269.968062856581 207.65423633699316 L270.0129938307199 207.7604759529741 L270.0410741522418 207.87438837307482 L270.05077417973047 207.99444395587915 L270.0410741522418 208.11449953868348 L270.01299383072 208.22841195878422 L269.968062856581 208.33465157476505 L269.9078108712413 208.43168874521 L269.833767516117 208.51799382870274 L269.74746243262433 208.59203718382707 L269.65042526217934 208.65228916916678 L269.54418564619846 208.69722014330566 L269.4302732260977 208.72530046482754 L269.3102176432934 208.7350004923162 L267.8501542455793 208.7350004923162 L267.8501542455793 210.1950638900303 L267.84045421809066 210.31511947283462 L267.81237389656883 210.4290318929354 L267.7674429224298 210.53527150891622 L267.7071909370901 210.6323086793612 L267.63314758196583 210.71861376285386 L267.5468424984732 210.79265711797825 L267.4498053280282 210.8529091033179 L267.3435657120473 210.8978400774568 L267.22965329194653 210.9259203989787 L267.10959770914224 210.93562042646735 L266.98954212633794 210.92592039897872 L266.8756297062372 210.89784007745683 L266.7693900902562 210.85290910331787 L266.6723529198113 210.7926571179782 L266.5860478363187 210.7186137628539 L266.51200448119437 210.6323086793612 L266.4517524958546 210.53527150891622 L266.40682152171576 210.42903189293537 L266.3787412001939 210.31511947283462 L266.3690411727052 210.1950638900303 L266.3690411727052 208.7350004923162 L264.90897777499106 208.7350004923162 L264.78892219218676 208.72530046482754 L264.67500977208607 208.69722014330569 L264.5687701561051 208.65228916916675 L264.4717329856602 208.59203718382705 L264.3854279021676 208.51799382870274 L264.3113845470432 208.43168874521004 L264.25113256170346 208.33465157476508 L264.20620158756464 208.2284119587842 L264.1781212660427 208.11449953868345 L264.168421238554 207.99444395587915 L264.1781212660427 207.87438837307485 L264.2062015875647 207.7604759529742 L264.2511325617034 207.65423633699314 L264.31138454704313 207.55719916654826 L264.3854279021675 207.47089408305555 L264.4717329856602 207.39685072793125 L264.5687701561051 207.33659874259155 L264.675009772086 207.29166776845267 L264.78892219218676 207.26358744693079 L264.90897777499106 207.2538874194421 L266.3690411727052 207.2538874194421 L266.3690411727052 205.793824021728 L266.3787412001939 205.67376843892364 L266.4068215217158 205.55985601882298 L266.4517524958545 205.453616402842 L266.5120044811943 205.3565792323971 L266.5860478363187 205.2702741489044 L266.6723529198114 205.19623079378013 L266.76939009025625 205.1359788084404 L266.8756297062372 205.0910478343015 L266.98954212633794 205.06296751277964 L267.10959770914224 205.05326748529095 L267.2296532919466 205.06296751277964 L267.34356571204734 205.09104783430155  Z " id="S2UOCNSZJ7"></path><path d="M22.911012630246546 176.34695362039938 L23.017252246227457 176.39188459453817 L23.114289416672374 176.4521365798779 L23.200594500165092 176.52617993500223 L23.2746378552894 176.61248501849497 L23.334889840629103 176.70952218893984 L23.379820814767996 176.8157618049208 L23.407901136289876 176.9296742250215 L23.41760116377855 177.04972980782583 L23.41760116377855 178.50979320553992 L24.877664561492665 178.50979320553992 L24.99772014429699 178.51949323302864 L25.11163256439772 178.54757355455052 L25.217872180378624 178.59250452868935 L25.314909350823545 178.65275651402905 L25.401214434316255 178.72679986915338 L25.47525778944057 178.8131049526461 L25.535509774780266 178.91014212309102 L25.58044074891916 179.01638173907193 L25.608521070441046 179.13029415917268 L25.618221097929716 179.25034974197698 L25.608521070441046 179.37040532478136 L25.580440748919166 179.48431774488205 L25.535509774780262 179.5905573608629 L25.475257789440562 179.68759453130784 L25.40121443431626 179.7738996148006 L25.314909350823548 179.8479429699249 L25.217872180378624 179.90819495526455 L25.111632564397713 179.9531259294035 L24.997720144296988 179.98120625092537 L24.877664561492665 179.99090627841403 L23.41760116377855 179.99090627841403 L23.41760116377855 181.45096967612812 L23.40790113628988 181.57102525893245 L23.379820814768003 181.68493767903323 L23.3348898406291 181.79117729501402 L23.274637855289395 181.888214465459 L23.200594500165092 181.97451954895172 L23.114289416672378 182.04856290407605 L23.017252246227457 182.10881488941573 L22.91101263024654 182.15374586355463 L22.797100210145818 182.1818261850765 L22.677044627341502 182.1915262125652 L22.556989044537183 182.18182618507652 L22.44307662443646 182.1537458635547 L22.336837008455532 182.1088148894157 L22.23979983801062 182.04856290407602 L22.15349475451791 181.97451954895172 L22.0794513993936 181.88821446545901 L22.019199414053897 181.79117729501408 L21.974268439915008 181.68493767903317 L21.946188118393124 181.57102525893245 L21.936488090904447 181.45096967612812 L21.936488090904447 179.99090627841403 L20.47642469319035 179.99090627841403 L20.356369110386026 179.98120625092537 L20.24245669028531 179.95312592940354 L20.13621707430438 179.90819495526452 L20.039179903859466 179.84794296992487 L19.952874820366755 179.77389961480063 L19.87883146524245 179.68759453130787 L19.81857947990275 179.5905573608629 L19.773648505763855 179.484317744882 L19.74556818424197 179.37040532478133 L19.7358681567533 179.25034974197698 L19.74556818424197 179.13029415917268 L19.77364850576386 179.01638173907196 L19.81857947990274 178.910142123091 L19.878831465242445 178.81310495264609 L19.952874820366755 178.72679986915335 L20.03917990385947 178.65275651402908 L20.136217074304383 178.59250452868935 L20.2424566902853 178.54757355455047 L20.356369110386026 178.5194932330286 L20.47642469319035 178.50979320553992 L21.936488090904447 178.50979320553992 L21.936488090904447 177.04972980782583 L21.946188118393124 176.9296742250215 L21.97426843991501 176.81576180492084 L22.019199414053894 176.70952218893981 L22.079451399393594 176.6124850184949 L22.15349475451791 176.52617993500223 L22.23979983801062 176.45213657987796 L22.336837008455532 176.3918845945382 L22.443076624436458 176.34695362039935 L22.556989044537175 176.31887329887746 L22.677044627341502 176.30917327138877 L22.79710021014582 176.3188732988775 L22.911012630246546 176.34695362039938  Z " id="rhqMb9GKTm"></path><path d="M36.86822109792973 172.30917327138883 C36.86822109792973 170.83739987273816 35.67332782991372 169.64250660472214 34.20155443126305 169.64250660472214 C32.72978103261238 169.64250660472214 31.534887764596373 170.83739987273816 31.534887764596373 172.30917327138883 C31.534887764596373 173.7809466700395 32.72978103261238 174.9758399380555 34.20155443126305 174.9758399380555 C35.67332782991372 174.9758399380555 36.86822109792973 173.7809466700395 36.86822109792973 172.30917327138883  Z " id="I6T7O8f2sF"></path><clipPath id="clipt9l7uU7znr"><use xlink:href="#I6T7O8f2sF" opacity="1"></use></clipPath><path d="M34.16101263024655 183.8469536203994 L34.26725224622746 183.8918845945382 L34.36428941667237 183.9521365798779 L34.45059450016509 184.02617993500223 L34.52463785528941 184.112485018495 L34.584889840629096 184.20952218893984 L34.629820814767996 184.3157618049208 L34.65790113628988 184.4296742250215 L34.66760116377855 184.54972980782583 L34.66760116377855 186.00979320553992 L36.127664561492665 186.00979320553992 L36.247720144297 186.01949323302864 L36.361632564397716 186.04757355455052 L36.46787218037862 186.09250452868932 L36.56490935082355 186.15275651402905 L36.65121443431626 186.22679986915338 L36.725257789440576 186.31310495264614 L36.785509774780266 186.41014212309102 L36.830440748919166 186.51638173907193 L36.85852107044105 186.63029415917268 L36.86822109792972 186.75034974197698 L36.85852107044104 186.87040532478136 L36.83044074891917 186.98431774488208 L36.78550977478026 187.09055736086287 L36.72525778944057 187.18759453130784 L36.65121443431626 187.2738996148006 L36.56490935082355 187.3479429699249 L36.46787218037863 187.40819495526455 L36.36163256439771 187.4531259294035 L36.24772014429699 187.48120625092537 L36.127664561492665 187.49090627841403 L34.66760116377855 187.49090627841403 L34.66760116377855 188.95096967612812 L34.65790113628988 189.07102525893248 L34.629820814768 189.18493767903323 L34.584889840629096 189.29117729501408 L34.524637855289406 189.38821446545901 L34.450594500165096 189.47451954895172 L34.36428941667238 189.54856290407605 L34.26725224622746 189.60881488941573 L34.161012630246546 189.65374586355463 L34.04710021014583 189.6818261850765 L33.9270446273415 189.6915262125652 L33.80698904453719 189.68182618507657 L33.693076624436465 189.65374586355466 L33.58683700845553 189.60881488941573 L33.489799838010626 189.548562904076 L33.40349475451791 189.47451954895172 L33.329451399393605 189.38821446545901 L33.269199414053894 189.2911772950141 L33.22426843991501 189.18493767903317 L33.196188118393124 189.07102525893245 L33.18648809090445 188.95096967612812 L33.18648809090445 187.49090627841403 L31.72642469319035 187.49090627841403 L31.60636911038603 187.48120625092537 L31.492456690285316 187.45312592940354 L31.386217074304376 187.40819495526455 L31.289179903859463 187.3479429699249 L31.202874820366755 187.27389961480063 L31.12883146524245 187.18759453130787 L31.06857947990275 187.0905573608629 L31.02364850576386 186.98431774488202 L30.995568184241975 186.87040532478133 L30.9858681567533 186.75034974197698 L30.995568184241975 186.63029415917268 L31.023648505763862 186.516381739072 L31.06857947990274 186.41014212309102 L31.128831465242445 186.31310495264609 L31.202874820366755 186.22679986915335 L31.289179903859473 186.1527565140291 L31.38621707430438 186.09250452868935 L31.492456690285305 186.04757355455047 L31.606369110386026 186.0194932330286 L31.72642469319035 186.00979320553992 L33.18648809090445 186.00979320553992 L33.18648809090445 184.54972980782583 L33.19618811839312 184.42967422502153 L33.22426843991501 184.31576180492084 L33.269199414053894 184.20952218893981 L33.32945139939359 184.11248501849494 L33.40349475451791 184.02617993500223 L33.48979983801063 183.95213657987793 L33.58683700845554 183.8918845945382 L33.69307662443646 183.84695362039935 L33.80698904453719 183.81887329887746 L33.9270446273415 183.80917327138877 L34.04710021014583 183.81887329887746 L34.16101263024655 183.8469536203994  Z " id="odGx7RxEYN"></path><path d="M305.7423776090536 76.42039951946043 C309.7159339981942 76.42039951946043 312.9419576400259 79.64642316129209 312.9419576400259 83.61997955043267 C312.9419576400259 83.61997955043267 312.9419576400259 83.61997955043267 312.9419576400259 83.61997955043267 C312.9419576400259 87.59353593957326 309.7159339981942 90.81955958140497 305.7423776090536 90.81955958140497 C298.604056923189 90.81955958140497 241.4974914362719 90.81955958140497 234.35917075040726 90.81955958140497 C230.38561436126668 90.81955958140497 227.159590719435 87.59353593957326 227.159590719435 83.61997955043267 C227.159590719435 83.61997955043267 227.159590719435 83.61997955043267 227.159590719435 83.61997955043267 C227.159590719435 79.64642316129209 230.38561436126668 76.42039951946043 234.35917075040726 76.42039951946043 C241.4974914362719 76.42039951946043 298.604056923189 76.42039951946043 305.7423776090536 76.42039951946043  Z " id="FhAJRgc6DS"></path><linearGradient id="gradientvcInH7rTK9" gradientUnits="userSpaceOnUse" x1="270.0507741797304" y1="68.99883089200938" x2="284.4823480224029" y2="99.5563440658608"><stop style="stop-color:rgba(255,200,224,1)" offset="0%"></stop><stop style="stop-color:rgba(255,220,235,1)" offset="100%"></stop></linearGradient><path d="M49.17762184474606 91.8762279804532 L48.020771899761876 91.3869717413305 L46.964127970337444 90.73088403542295 L46.02434641927902 89.92462122553685 L45.21808360939289 88.98483967447841 L44.56199590348534 87.92819574505397 L44.07273966436267 86.77134580006984 L43.76697125483112 85.5309462023322 L43.66134703769698 84.22365331464738 L43.76697125483111 82.91636042696257 L44.072739664362665 81.67596082922492 L44.56199590348535 80.51911088424073 L45.218083609392906 79.4624669548163 L46.02434641927903 78.52268540375789 L46.964127970337444 77.71642259387175 L48.020771899761876 77.06033488796419 L49.17762184474608 76.57107864884154 L50.418021442483706 76.26531023930998 L51.72531433016851 76.15968602217585 L131.67884535052133 76.15968602217585 L132.98613823820614 76.26531023930997 L134.22653783594376 76.57107864884152 L135.38338778092793 77.0603348879642 L136.4400317103524 77.71642259387175 L137.37981326141082 78.52268540375788 L138.18607607129692 79.46246695481629 L138.84216377720446 80.51911088424072 L139.3314200163272 81.67596082922495 L139.63718842585874 82.91636042696257 L139.74281264299287 84.22365331464738 L139.63718842585874 85.53094620233219 L139.33142001632717 86.77134580006982 L138.84216377720446 87.92819574505398 L138.18607607129698 88.98483967447842 L137.37981326141082 89.92462122553685 L136.44003171035237 90.73088403542295 L135.3833877809279 91.38697174133048 L134.22653783594382 91.8762279804532 L132.98613823820617 92.18199638998475 L131.67884535052133 92.28762060711887 L83.42751938283662 92.28762060711887 L83.42751938283662 97.84673253866065 L126.61158989123619 97.84673253866065 L128.13414106941204 97.96974879443347 L129.57878433698835 98.3258649001408 L130.92612070154829 98.89568186336575 L132.15675117067502 99.65980069169144 L133.25127675195154 100.598822392701 L134.1902984529611 101.69334797397754 L134.95441728128674 102.92397844310419 L135.52423424451175 104.27131480766417 L135.88035035021906 105.71595807524047 L136.0033666059919 107.23850925341628 L135.88035035021906 108.76106043159214 L135.52423424451172 110.2057036991685 L134.95441728128674 111.55304006372839 L134.1902984529611 112.78367053285513 L133.25127675195154 113.87819611413163 L132.15675117067502 114.81721781514118 L130.92612070154826 115.58133664346684 L129.57878433698838 116.15115360669185 L128.13414106941207 116.50726971239916 L126.61158989123619 116.63028596817202 L85.16707458740834 116.63028596817202 L85.16707458740834 132.00513383818893 L102.34114686262394 132.00513383818893 L103.07677576293074 132.06456981265808 L103.7747630315992 132.23662925011945 L104.42573593970994 132.51193942165372 L105.0203217583439 132.8811275983418 L105.54914775858174 133.33482105126436 L106.0028412115043 133.8636470515022 L106.37202938819233 134.4582328701361 L106.64733955972675 135.10920577824697 L106.81939899718802 135.8071930469154 L106.87883497165717 136.54282194722222 L106.819398997188 137.2784508475291 L106.64733955972666 137.9764381161975 L106.37202938819235 138.62741102430826 L106.0028412115043 139.22199684294236 L105.54914775858174 139.7508228431801 L105.02032175834388 140.20451629610264 L104.42573593970992 140.57370447279064 L103.77476303159924 140.84901464432505 L103.07677576293072 141.02107408178634 L102.34114686262394 141.08051005625552 L57.35036579571767 141.08051005625552 L56.614736895410864 141.02107408178637 L55.9167496267424 140.849014644325 L55.26577671863161 140.5737044727907 L54.671190899997676 140.20451629610267 L54.142364899759805 139.7508228431801 L53.68867144683725 139.22199684294233 L53.319483270149185 138.62741102430823 L53.0441730986149 137.97643811619753 L52.87211366115355 137.2784508475291 L52.81267768668438 136.54282194722222 L52.87211366115355 135.8071930469154 L53.04417309861489 135.10920577824697 L53.31948327014919 134.45823287013613 L53.68867144683725 133.86364705150223 L54.142364899759805 133.33482105126436 L54.67119089999767 132.88112759834178 L55.2657767186316 132.5119394216537 L55.916749626742416 132.23662925011948 L56.61473689541087 132.0645698126581 L57.35036579571767 132.00513383818893 L74.32991639233799 132.00513383818893 L75.4715571668112 131.91285351366528 L76.65440817881235 131.62127129023344 L77.75758584079622 131.1547141915132 L78.76520656521777 130.52906580504992 L79.66138676453171 129.76020971838875 L80.43024285119293 128.8640295190748 L81.05589123765618 127.85640879465333 L81.52244833637639 126.75323113266934 L81.81403055980829 125.57038012066825 L81.91475432040673 124.323739346195 L81.81403055980829 123.07709857172182 L81.52244833637639 121.8942475597207 L81.05589123765618 120.7910698977367 L80.43024285119292 119.78344917331529 L79.66138676453173 118.88726897400126 L78.76520656521777 118.11841288734013 L77.75758584079624 117.49276450087676 L76.65440817881233 117.02620740215661 L75.47155716681118 116.73462517872471 L74.224916392338 116.63390141812624 L74.01796205608996 116.63390141812624 L74.01796205608996 116.63028596817202 L33.49294448198596 116.63028596817202 L31.970393303810123 116.50726971239916 L30.525750036233802 116.15115360669182 L29.178413671673866 115.58133664346686 L27.947783202547196 114.81721781514119 L26.853257621270636 113.87819611413164 L25.914235920261085 112.78367053285511 L25.150117091935396 111.55304006372836 L24.58030012871047 110.20570369916852 L24.224184023003115 108.76106043159214 L24.10116776723025 107.23850925341628 L24.224184023003115 105.71595807524047 L24.580300128710455 104.27131480766414 L25.1501170919354 102.9239784431042 L25.914235920261103 101.69334797397755 L26.853257621270654 100.598822392701 L27.947783202547196 99.65980069169143 L29.17841367167386 98.89568186336574 L30.52575003623382 98.32586490014087 L31.970393303810127 97.96974879443349 L33.49294448198596 97.84673253866065 L66.17927965605516 97.84673253866065 L66.36861122819263 97.83144089882174 L66.79779730073145 97.72564310347208 L67.19807466724305 97.55635736352404 L67.56368012129897 97.32934688540634 L67.88885045647069 97.05037487554736 L68.16782246632968 96.72520454037569 L68.39483294444744 96.35959908631972 L68.56411868439537 95.95932171980809 L68.66991647974507 95.53013564726928 L68.70646312406797 95.0778040751318 L68.66991647974505 94.62547250299433 L68.56411868439538 94.19628643045552 L68.39483294444744 93.79600906394384 L68.16782246632967 93.43040360988795 L67.8888504564707 93.10523327471623 L67.563680121299 92.82626126485727 L67.19807466724312 92.59925078673953 L66.79779730073145 92.42996504679158 L66.36861122819263 92.32416725144189 L65.91627965605514 92.28762060711898 L51.72531433016851 92.28762060711887 L50.4180214424837 92.18199638998475 L49.17762184474606 91.8762279804532  Z " id="RqRSvKBV9m"></path><linearGradient id="gradientIZwC596pj" gradientUnits="userSpaceOnUse" x1="58.94550376681415" y1="76.32034861157294" x2="68.373123058714" y2="141.0805100562555"><stop style="stop-color:rgba(255,200,224,1)" offset="0%"></stop><stop style="stop-color:rgba(255,220,235,1)" offset="100%"></stop></linearGradient><path d="M290.9238006691126 25.45798944859724 L291.0300402850934 25.50292042273612 L291.1270774555383 25.56317240807583 L291.21338253903104 25.63721576320014 L291.28742589415543 25.723520846692853 L291.34767787949505 25.820558017137763 L291.392608853634 25.92679763311869 L291.42068917515587 26.04071005321941 L291.4303892026445 26.160765636023733 L291.4303892026445 27.620829033737838 L292.8904526003586 27.620829033737838 L293.010508183163 27.630529061226518 L293.12442060326373 27.658609382748402 L293.23066021924444 27.703540356887288 L293.32769738968943 27.763792342226985 L293.4140024731822 27.8378356973513 L293.4880458283066 27.92414078084401 L293.5482978136462 28.021177951288923 L293.5932287877851 28.12741756726985 L293.62130910930705 28.24132998737057 L293.63100913679574 28.361385570174892 L293.62130910930705 28.48144115297921 L293.5932287877852 28.59535357307994 L293.5482978136461 28.701593189060844 L293.48804582830655 28.798630359505765 L293.41400247318217 28.884935442998483 L293.3276973896895 28.958978798122793 L293.23066021924456 29.01923078346249 L293.1244206032636 29.064161757601386 L293.010508183163 29.092242079123267 L292.8904526003586 29.10194210661194 L291.4303892026445 29.10194210661194 L291.4303892026445 30.562005504326045 L291.42068917515587 30.68206108713038 L291.39260885363404 30.7959735072311 L291.34767787949505 30.902213123212004 L291.28742589415543 30.999250293656928 L291.21338253903104 31.08555537714964 L291.12707745553837 31.15959873227395 L291.0300402850934 31.219850717613646 L290.92380066911255 31.264781691752546 L290.8098882490118 31.292862013274426 L290.68983266620745 31.3025620407631 L290.56977708340315 31.292862013274426 L290.45586466330246 31.264781691752553 L290.3496250473214 31.219850717613642 L290.25258787687653 31.159598732273945 L290.16628279338386 31.08555537714964 L290.0922394382596 30.999250293656928 L290.0319874529198 30.902213123212007 L289.9870564787809 30.795973507231093 L289.9589761572591 30.68206108713037 L289.9492761297704 30.562005504326045 L289.9492761297704 29.10194210661194 L288.4892127320563 29.10194210661194 L288.369157149252 29.09224207912327 L288.2552447291514 29.064161757601394 L288.1490051131703 29.01923078346249 L288.05196794272535 28.958978798122786 L287.96566285923274 28.884935442998483 L287.89161950410846 28.798630359505776 L287.8313675187687 28.70159318906085 L287.7864365446298 28.595353573079933 L287.7583562231079 28.48144115297921 L287.7486561956192 28.361385570174892 L287.7583562231079 28.24132998737057 L287.78643654462985 28.127417567269855 L287.8313675187686 28.02117795128892 L287.89161950410835 27.924140780844006 L287.9656628592327 27.8378356973513 L288.0519679427254 27.763792342226992 L288.1490051131703 27.703540356887288 L288.25524472915134 27.6586093827484 L288.369157149252 27.630529061226515 L288.4892127320563 27.620829033737838 L289.9492761297704 27.620829033737838 L289.9492761297704 26.160765636023733 L289.9589761572591 26.040710053219414 L289.9870564787811 25.926797633118692 L290.0319874529198 25.82055801713776 L290.0922394382595 25.72352084669285 L290.16628279338386 25.637215763200135 L290.2525878768766 25.563172408075832 L290.34962504732147 25.50292042273613 L290.45586466330246 25.457989448597235 L290.5697770834031 25.429909127075355 L290.68983266620745 25.42020909958668 L290.80988824901175 25.429909127075355 L290.9238006691126 25.45798944859724  Z " id="tzP5TKgquj"></path><path d="M306.66830697958324 42.27805223684157 C306.66830697958324 43.749825635492236 305.4734137115672 44.944718903508246 304.00164031291655 44.944718903508246 C302.5298669142659 44.944718903508246 301.33497364624986 43.749825635492236 301.33497364624986 42.27805223684157 C301.33497364624986 40.80627883819089 302.5298669142659 39.61138557017489 304.00164031291655 39.61138557017489 C305.4734137115672 39.61138557017489 306.66830697958324 40.80627883819089 306.66830697958324 42.27805223684157  Z " id="ekilnI724o"></path><clipPath id="clipbj52dgyxtC"><use xlink:href="#ekilnI724o" opacity="1"></use></clipPath><path d="M267.3435657120473 32.27906787996981 L267.44980532802805 32.323998854108694 L267.5468424984731 32.3842508394484 L267.6331475819658 32.45829419457271 L267.7071909370901 32.54459927806542 L267.7674429224297 32.64163644851033 L267.8123738965687 32.74787606449125 L267.8404542180906 32.861788484591976 L267.85015424557923 32.981844067396295 L267.85015424557923 34.441907465110404 L269.3102176432934 34.441907465110404 L269.43027322609777 34.45160749259908 L269.5441856461985 34.479687814120965 L269.65042526217934 34.52461878825984 L269.7474624326243 34.58487077359955 L269.83376751611695 34.658914128723865 L269.90781087124134 34.74521921221658 L269.968062856581 34.84225638266149 L270.0129938307199 34.948495998642414 L270.0410741522418 35.06240841874314 L270.05077417973047 35.18246400154746 L270.0410741522418 35.30251958435179 L270.01299383072 35.41643200445251 L269.968062856581 35.522671620433414 L269.9078108712413 35.61970879087834 L269.833767516117 35.70601387437106 L269.74746243262433 35.78005722949536 L269.65042526217934 35.84030921483507 L269.54418564619846 35.88524018897397 L269.4302732260977 35.91332051049585 L269.3102176432934 35.92302053798451 L267.85015424557923 35.92302053798451 L267.85015424557923 37.38308393569862 L267.8404542180906 37.50313951850294 L267.8123738965688 37.617051938603666 L267.7674429224297 37.72329155458457 L267.70719093709005 37.8203287250295 L267.6331475819658 37.90663380852221 L267.54684249847315 37.98067716364652 L267.4498053280281 38.040929148986216 L267.3435657120472 38.085860123125116 L267.22965329194653 38.113940444647 L267.1095977091422 38.12364047213567 L266.9895421263379 38.113940444647 L266.8756297062372 38.08586012312512 L266.76939009025614 38.04092914898621 L266.67235291981126 37.98067716364652 L266.58604783631864 37.90663380852221 L266.5120044811943 37.820328725029505 L266.4517524958545 37.72329155458458 L266.40682152171576 37.61705193860366 L266.3787412001938 37.50313951850294 L266.3690411727051 37.38308393569862 L266.3690411727051 35.92302053798451 L264.90897777499106 35.92302053798451 L264.78892219218676 35.91332051049585 L264.67500977208607 35.885240188973974 L264.5687701561051 35.84030921483505 L264.4717329856602 35.780057229495355 L264.3854279021676 35.70601387437106 L264.3113845470432 35.61970879087834 L264.25113256170346 35.522671620433414 L264.20620158756464 35.4164320044525 L264.1781212660427 35.302519584351785 L264.168421238554 35.18246400154746 L264.1781212660427 35.06240841874314 L264.2062015875647 34.94849599864242 L264.2511325617034 34.84225638266148 L264.31138454704313 34.745219212216575 L264.3854279021675 34.658914128723865 L264.4717329856602 34.58487077359956 L264.5687701561051 34.52461878825985 L264.675009772086 34.47968781412096 L264.78892219218676 34.45160749259908 L264.90897777499106 34.441907465110404 L266.3690411727051 34.441907465110404 L266.3690411727051 32.981844067396295 L266.37874120019376 32.861788484591976 L266.40682152171576 32.74787606449126 L266.4517524958545 32.641636448510326 L266.51200448119425 32.54459927806541 L266.58604783631864 32.4582941945727 L266.6723529198113 32.3842508394484 L266.7693900902562 32.323998854108694 L266.87562970623713 32.2790678799698 L266.9895421263379 32.250987558447925 L267.1095977091422 32.24128753095925 L267.22965329194653 32.25098755844792 L267.3435657120473 32.27906787996981  Z " id="KsxV4Hqj6w"></path><path d="M61.407436784204265 42.960875432505134 C61.407436784204265 44.4326488311558 60.21254351618826 45.627542099171805 58.740770117537586 45.627542099171805 C57.26899671888692 45.627542099171805 56.074103450870915 44.4326488311558 56.074103450870915 42.960875432505134 C56.074103450870915 41.489102033854465 57.26899671888692 40.294208765838455 58.740770117537586 40.294208765838455 C60.21254351618826 40.294208765838455 61.407436784204265 41.489102033854465 61.407436784204265 42.960875432505134  Z " id="z2ecksDrDr"></path><clipPath id="clipXz4jIcB18P"><use xlink:href="#z2ecksDrDr" opacity="1"></use></clipPath><path d="M71.40743678420424 36.29420876583848 C71.40743678420424 37.76598216448915 70.21254351618823 38.96087543250516 68.74077011753756 38.96087543250516 C67.26899671888688 38.96087543250516 66.07410345087088 37.76598216448915 66.07410345087088 36.29420876583848 C66.07410345087088 34.82243536718781 67.26899671888688 33.627542099171805 68.74077011753756 33.627542099171805 C70.21254351618823 33.627542099171805 71.40743678420424 34.82243536718781 71.40743678420424 36.29420876583848  Z " id="NaEckAAogx"></path><path d="M79.40136955703518 91.24302973090983 C78.71716796365006 110.27720939651135 78.71716796365006 128.28251448559388 79.40136955703518 145.25894499815746 C80.08557115042031 162.235375510721 80.98583640487443 178.69736873502507 82.10216532039756 194.6449246710696 L180.10246873383258 225.51116196663963 L275.78780435009975 193.87326873868034 C277.91243035061143 171.2586055467926 278.94130492713043 151.32416062673693 278.87442807965675 134.0699339785133 C278.8075512321831 116.81570733028963 278.16450462185867 102.28285393695873 276.94528824868365 90.47137379852056 L172.7717373761347 74.2665992183463 L79.40136955703518 91.24302973090983  Z " id="fEav84gZav"></path><linearGradient id="gradientgvC3c1BfUb" gradientUnits="userSpaceOnUse" x1="281.1784653303518" y1="89.65856288307059" x2="151.74604360426125" y2="76.41694708327101"><stop style="stop-color:rgba(232,239,240,1)" offset="0%"></stop><stop style="stop-color:rgba(255,255,255,1)" offset="100%"></stop></linearGradient><path d="M176.2441890718863 37.22711446366219 L77.85805769225668 56.13268480719885 C76.7983168784421 62.75863707998123 76.14755370879382 68.89587392891707 75.90576818331186 74.54439535400641 C75.66398265782989 80.19291677909575 75.89290725110537 85.6228023566748 76.59254196313829 90.83405208674355 L179.71664076763795 112.46356787161426 L281.8530199786793 89.78460001869416 C283.3088775044536 85.13923130571084 284.08053343684287 80.05916308414825 284.16798777584705 74.54439535400641 C284.25544211485123 69.02962762386456 283.00535950438064 63.149609419058464 280.4177399444353 56.90434073958812 L176.2441890718863 37.22711446366219  Z " id="p7uRJ57pwB"></path><linearGradient id="gradientpjnZ9wER7q" gradientUnits="userSpaceOnUse" x1="278.06258848611157" y1="52.61907812838648" x2="148.63016676002107" y2="39.3774623285869"><stop style="stop-color:rgba(232,239,240,1)" offset="0%"></stop><stop style="stop-color:rgba(255,255,255,1)" offset="100%"></stop></linearGradient><path d="M181.17507047985356 117.11723188587085 C181.17507047985356 124.72471764372017 181.17507047985356 185.5846037065147 181.17507047985356 193.19208946436402 C181.17507047985356 193.72476950927313 180.74260186732673 194.15723812179994 180.2099218224176 194.15723812179994 C180.2099218224176 194.15723812179994 180.2099218224176 194.15723812179994 180.2099218224176 194.15723812179994 C179.6772417775085 194.15723812179994 179.24477316498167 193.72476950927313 179.24477316498167 193.19208946436402 C179.24477316498167 185.5846037065147 179.24477316498167 124.72471764372017 179.24477316498167 117.11723188587085 C179.24477316498167 116.58455184096174 179.6772417775085 116.1520832284349 180.2099218224176 116.1520832284349 C180.74260186732673 116.1520832284349 181.17507047985356 116.58455184096174 181.17507047985356 117.11723188587085  Z " id="M2ZH0fnLbz"></path><path d="M181.1313433103516 201.2592378002053 C181.1313433103516 203.5127432023582 181.1313433103516 221.54078641958142 181.1313433103516 223.79429182173436 C181.1313433103516 224.30887160527345 180.7135698135812 224.72664510204385 180.19899003004213 224.72664510204385 C180.19899003004213 224.72664510204385 180.19899003004213 224.72664510204385 180.19899003004213 224.72664510204385 C179.68441024650306 224.72664510204385 179.26663674973264 224.30887160527345 179.26663674973264 223.79429182173436 C179.26663674973264 221.54078641958142 179.26663674973264 203.5127432023582 179.26663674973264 201.2592378002053 C179.26663674973264 200.74465801666622 179.68441024650306 200.32688451989583 180.19899003004213 200.32688451989583 C180.7135698135812 200.32688451989583 181.1313433103516 200.74465801666622 181.1313433103516 201.2592378002053  Z " id="IdzKoPcvMl"></path><path d="M106.02349922446436 96.46868370504983 C105.8537349193387 117.51739979147587 105.98234424140358 137.07939211483173 106.40932719065898 155.15466067511744 C106.83631013991436 173.22992923540318 107.73657539436849 189.40983934664484 109.11012295402136 203.6943910088425 L137.2755644862291 212.52676481096995 L134.18894075667208 102.39500126579928 L106.02349922446436 96.46868370504983  Z " id="Ly0u594DkX"></path><path d="M78.15385913300587 56.683132705636496 L179.95070973379595 76.27290464255829 L279.6486561984874 57.73258477368587 " id="PdxDoTGWUF"></path><path d="M250.82882567831905 96.46868370504983 C250.99858998344467 117.51739979147587 250.86998066137983 137.07939211483173 250.44299771212445 155.15466067511744 C250.01601476286902 173.22992923540318 249.11574950841486 189.29323356130604 247.74220194876204 203.34457365282606 L219.57676041655435 212.52676481096995 L222.75083848511548 102.91972729982398 L250.82882567831905 96.46868370504983  Z " id="t73QQwzPON"></path><path d="M102.82267041691374 61.10214901178562 L104.57741600716689 97.21873327133221 L134.8733995687014 103.57897868472855 L135.675664519742 67.58946043538208 L102.82267041691374 61.10214901178562  Z " id="jlY3wjXnHy"></path><path d="M102.82267041691374 61.10214901178562 L203.44274572081025 41.86939655291594 L232.40299286337898 47.32680452541688 L135.675664519742 67.58946043538208 L102.82267041691374 61.10214901178562  Z " id="fmhPmviDv2"></path><path d="M254.11353252115057 62.21719183408809 L251.97836055622952 96.93013395261863 L222.12839412361603 103.4477971762224 L221.45731068108154 68.31095873216603 L254.11353252115057 62.21719183408809  Z " id="tgi4CCiIy4"></path><path d="M254.44148629241613 62.25654628663995 L149.88596573333444 41.764451346111024 L120.66335557375336 47.37927712881936 L221.27365656917306 68.48149469322405 L254.44148629241613 62.25654628663995  Z " id="Fp9CqdORhe"></path><path d="M184.4893015602594 56.02482645538258 L183.07903601404405 56.08758122368375 L179.16823240476918 56.24965293833165 L173.2368802764916 56.4717527139429 L165.76496917326813 56.714591665134144 L157.2324886391555 56.93888090652195 L148.11942821821043 57.10533155272299 L138.9057774544898 57.174654718353835 L130.07152589205046 57.10756151803116 L122.09666307494903 56.864763066371516 L115.46117854724238 56.40697047799155 L110.36395937106337 55.63216043531868 L106.56438822239406 54.52888603629255 L103.8831980660651 53.193723018798174 L102.1411218669072 51.72324712072058 L101.15889258975098 50.21403407994474 L100.75724319942712 48.762659634355714 L100.75690666076629 47.46569952183847 L100.9786159385992 46.41972948027807 L101.24310399775642 45.72132524755948 L101.37110380306868 45.467062561567715 L125.16094517921819 25.287222246803054 L177.8229407743561 43.91203493461356 L184.4893015602594 56.02482645538258  Z M117.56875049596087 38.785679890955194 L117.6616762569204 39.37461857541892 L118.55486913797003 40.049659106415916 L120.19938099015818 40.74933465713713 L122.54626366453326 41.412178400773435 L125.54656901214364 41.97672351051574 L134.19896424274057 43.4473662752762 L141.88591249242714 45.07749599170731 L148.62029023446084 46.79308533404954 L154.41497394209918 48.52010697654353 L159.2828400885997 50.18453359342976 L163.23676514721967 51.7123378589488 L166.28962559121663 53.02949244734116 L168.45429789384815 54.06197003284743 L169.573 54.646 L170.17058396804435 54.976784892163785 L169.74365852837158 54.735743289708125 L169.573 54.646 L169.5351350857276 54.625652991582776 L167.7363245186417 53.65856954882149 L164.93545638658273 52.20500295235249 L161.29383480934732 50.39442159064847 L156.97276390673156 48.356293852182006 L152.13354779853194 46.22008812542572 L146.93749060454462 44.11527279885218 L141.5458964445661 42.17131626093406 L136.12006943839253 40.51768690014394 L130.82131370582036 39.283853104954446 L126.17868163205556 38.52028015461523 L122.5810574231388 38.1501431848548 L119.97949293011844 38.11197536886403 L118.325040004043 38.34430987983387 L117.56875049596087 38.785679890955194  Z " id="JDC8UIq4kD"></path><path d="M176.6297151152686 45.06431387943951 C168.817753232612 34.36409664624548 160.54590592133633 26.6533800400015 151.81417318144156 21.932164060707578 C138.7165740715994 14.850340091766704 130.55188649528586 13.69206898088467 120.60667450140488 15.720835705492973 C110.66146250752391 17.749602430101277 116.64627271365092 19.737623320724026 110.92154362123898 28.069681089546123 C107.10505755963102 33.624386268760844 103.68602688487283 40.19146069212508 100.6644515969644 47.77090435963882 C107.41639690477334 39.5603927186692 116.98136941519536 36.505955098748885 129.3593691282305 38.60759149987788 C141.7373688412656 40.70922790100688 157.41560706787044 47.35216538703266 176.39408380804497 58.536403957955244 L176.6297151152686 45.06431387943951  Z " id="O5jK6ZrPwZ"></path><path d="M310.59550239288734 102.77552544704982 L310.7017420088681 102.82045642118867 L310.79877917931304 102.88070840652837 L310.8850842628058 102.95475176165269 L310.95912761793016 103.0410568451454 L311.0193796032697 103.13809401559033 L311.0643105774087 103.24433363157124 L311.0923908989306 103.35824605167197 L311.10209092641924 103.4783016344763 L311.10209092641924 104.93836503219039 L312.56215432413336 104.93836503219039 L312.6822099069377 104.94806505967907 L312.79612232703846 104.97614538120098 L312.90236194301923 105.02107635533982 L312.9993991134642 105.08132834067955 L313.08570419695695 105.15537169580385 L313.1597475520813 105.24167677929657 L313.2199995374209 105.33871394974148 L313.2649305115599 105.44495356572241 L313.2930108330818 105.55886598582313 L313.3027108605704 105.67892156862744 L313.2930108330818 105.7989771514318 L313.2649305115599 105.91288957153252 L313.2199995374209 106.0191291875134 L313.1597475520813 106.11616635795833 L313.08570419695695 106.20247144145104 L312.9993991134643 106.27651479657534 L312.9023619430193 106.33676678191505 L312.79612232703835 106.38169775605394 L312.6822099069377 106.40977807757582 L312.56215432413336 106.41947810506448 L311.10209092641924 106.41947810506448 L311.10209092641924 107.8795415027786 L311.0923908989306 107.9995970855829 L311.0643105774088 108.11350950568368 L311.0193796032697 108.21974912166453 L310.95912761793005 108.31678629210946 L310.88508426280583 108.4030913756022 L310.7987791793131 108.47713473072652 L310.7017420088681 108.5373867160662 L310.5955023928873 108.58231769020509 L310.48158997278654 108.61039801172697 L310.3615343899822 108.62009803921565 L310.2414788071779 108.61039801172699 L310.12756638707725 108.58231769020512 L310.02132677109614 108.53738671606617 L309.9242896006513 108.47713473072652 L309.8379845171586 108.40309137560219 L309.7639411620343 108.31678629210948 L309.70368917669464 108.21974912166455 L309.6587582025557 108.11350950568367 L309.6306778810338 107.9995970855829 L309.6209778535451 107.8795415027786 L309.6209778535451 106.41947810506448 L308.160914455831 106.4194781050645 L308.0408588730267 106.40977807757585 L307.9269464529261 106.38169775605397 L307.82070683694496 106.33676678191503 L307.72366966650014 106.27651479657534 L307.63736458300747 106.20247144145102 L307.5633212278832 106.11616635795835 L307.50306924254335 106.01912918751343 L307.4581382684045 105.9128895715325 L307.43005794688264 105.79897715143179 L307.42035791939395 105.67892156862744 L307.43005794688264 105.55886598582315 L307.4581382684046 105.44495356572243 L307.50306924254335 105.33871394974148 L307.56332122788314 105.24167677929657 L307.63736458300747 105.15537169580386 L307.7236696665002 105.08132834067958 L307.820706836945 105.02107635533983 L307.926946452926 104.97614538120096 L308.0408588730267 104.94806505967907 L308.160914455831 104.93836503219039 L309.6209778535451 104.93836503219039 L309.6209778535451 103.4783016344763 L309.6306778810338 103.35824605167197 L309.65875820255576 103.24433363157127 L309.7036891766946 103.1380940155903 L309.76394116203426 103.0410568451454 L309.8379845171586 102.95475176165269 L309.9242896006513 102.8807084065284 L310.0213267710962 102.82045642118867 L310.12756638707714 102.77552544704979 L310.2414788071779 102.7474451255279 L310.3615343899822 102.73774509803923 L310.48158997278654 102.7474451255279 L310.59550239288734 102.77552544704982  Z " id="fsP9xS4NP2"></path><path d="M326.34000870335797 119.59558823529412 C326.34000870335797 121.0673616339448 325.14511543534195 122.2622549019608 323.6733420366913 122.2622549019608 C322.2015686380406 122.2622549019608 321.0066753700246 121.0673616339448 321.0066753700246 119.59558823529412 C321.0066753700246 118.12381483664345 322.2015686380406 116.92892156862744 323.6733420366913 116.92892156862744 C325.14511543534195 116.92892156862744 326.34000870335797 118.12381483664345 326.34000870335797 119.59558823529412  Z " id="YtoPfvGGIM"></path><clipPath id="clipbWTyJ98Vb"><use xlink:href="#YtoPfvGGIM" opacity="1"></use></clipPath><path d="M110.7552727775645 28.309160286750732 C112.55101551766163 25.44563358526394 114.39372530799548 23.485640305648705 116.2834021485661 22.429180447905026 C118.1730789891367 21.37272059016134 120.52979713333433 21.06797255427371 123.35355658115898 21.514936340242137 " id="mlNK0Q9POw"></path><path d="M253.53488012035874 45.72132524755948 L253.799368179516 46.41972948027807 L254.02107745734875 47.46569952183847 L254.02074091868798 48.762659634355714 L253.61909152836415 50.21403407994474 L252.63686225120796 51.72324712072058 L250.89478605205 53.193723018798174 L248.21359589572106 54.52888603629255 L244.41402474705174 55.63216043531868 L239.31680557087273 56.40697047799155 L232.68132104316612 56.864763066371516 L224.70645822606474 57.10756151803116 L215.87220666362526 57.174654718353835 L206.65855589990466 57.10533155272299 L197.54549547895965 56.93888090652195 L189.01301494484704 56.714591665134144 L181.5411038416235 56.4717527139429 L175.60975171334593 56.24965293833165 L171.69894810407106 56.08758122368375 L170.2886825578557 56.02482645538258 L176.955043343759 43.91203493461356 L229.61703893889694 25.287222246803054 L253.40688031504644 45.467062561567715 L253.53488012035874 45.72132524755948  Z M228.59930248605957 38.52028015461523 L223.95667041229476 39.283853104954446 L218.65791467972258 40.51768690014394 L213.23208767354902 42.17131626093406 L207.84049351357044 44.11527279885218 L202.64443631958318 46.22008812542572 L197.8052202113835 48.356293852182006 L193.4841493087678 50.39442159064847 L189.84252773153224 52.20500295235249 L187.0416595994735 53.65856954882149 L185.24284903238748 54.625652991582776 L185.205 54.646 L185.03432558974356 54.735743289708125 L184.60740015007073 54.976784892163785 L185.205 54.646 L186.32368622426696 54.06197003284743 L188.48835852689842 53.02949244734116 L191.54121897089547 51.7123378589488 L195.49514402951544 50.18453359342976 L200.36301017601585 48.52010697654353 L206.1576938836542 46.79308533404954 L212.89207162568803 45.07749599170731 L220.5790198753746 43.4473662752762 L229.23141510597145 41.97672351051574 L232.2317204535819 41.412178400773435 L234.5786031279569 40.74933465713713 L236.22311498014503 40.049659106415916 L237.1163078611947 39.37461857541892 L237.20923362215422 38.785679890955194 L236.45294411407207 38.34430987983387 L234.79849118799655 38.11197536886403 L232.19692669497638 38.1501431848548 L228.59930248605957 38.52028015461523  Z " id="nqiQaeI6Uo"></path><path d="M178.14826900284638 45.06431387943951 C185.96023088550294 34.36409664624548 194.23207819677862 26.6533800400015 202.9638109366734 21.932164060707578 C216.06141004651556 14.850340091766704 224.22609762282912 13.69206898088467 234.1713096167101 15.720835705492973 C244.11652161059106 17.749602430101277 238.13171140446406 19.737623320724026 243.856440496876 28.069681089546123 C247.67292655848394 33.624386268760844 251.0919572332421 40.19146069212508 254.11353252115057 47.77090435963882 C247.36158721334164 39.5603927186692 237.79661470291958 36.505955098748885 225.41861498988447 38.60759149987788 C213.04061527684934 40.70922790100688 197.3623770502445 47.35216538703266 178.38390031007 58.536403957955244 L178.14826900284638 45.06431387943951  Z " id="l8ubD1IFIB"></path><path d="M244.15457371207103 28.519820861526814 C242.3588309719739 25.65629416004002 240.51612118164002 23.696300880424786 238.62644434106943 22.639841022681107 C236.7367675004988 21.58338116493742 234.38004935630119 21.27863312904979 231.55628990847654 21.72559691501822 " id="h3iEfCqzjH"></path><path d="M189.71675590200095 51.54821078207526 C189.71675590200095 57.436581720722955 184.0491822352274 62.21719183408811 177.06832094750717 62.21719183408811 C170.087459659787 62.21719183408811 164.41988599301342 57.436581720722955 164.41988599301342 51.54821078207526 C164.41988599301342 45.659839843427555 170.087459659787 40.8792297300624 177.06832094750717 40.8792297300624 C184.0491822352274 40.8792297300624 189.71675590200095 45.659839843427555 189.71675590200095 51.54821078207526  Z " id="Beq4sLm2tP"></path></defs><g visibility="visible"><g><g><use xlink:href="#ynOCchNAc0" opacity="1" fill="url(#gradientGgpxYOekbm)"></use></g><g><use xlink:href="#JEiidQymvl" opacity="1" fill="#5c717e" fill-opacity="1"></use></g><g><use xlink:href="#MEbRPCA45p" opacity="1" fill="url(#gradientSus1zNZmUg)"></use></g><g><use xlink:href="#Gc2fqBbGIV" opacity="1" fill="#ffdceb" fill-opacity="1"></use></g><g><use xlink:href="#S2UOCNSZJ7" opacity="1" fill="#ffdceb" fill-opacity="1"></use></g><g><use xlink:href="#rhqMb9GKTm" opacity="1" fill="#ffdceb" fill-opacity="1"></use></g><g><g clip-path="url(#clipt9l7uU7znr)"><use xlink:href="#I6T7O8f2sF" opacity="1" fill-opacity="0" stroke="#ffdceb" stroke-width="2" stroke-opacity="1"></use></g></g><g><use xlink:href="#odGx7RxEYN" opacity="1" fill="#ffdceb" fill-opacity="1"></use></g><g><use xlink:href="#FhAJRgc6DS" opacity="1" fill="url(#gradientvcInH7rTK9)"></use></g><g><use xlink:href="#RqRSvKBV9m" opacity="1" fill="url(#gradientIZwC596pj)"></use></g><g><use xlink:href="#tzP5TKgquj" opacity="1" fill="#ffdceb" fill-opacity="1"></use></g><g><g clip-path="url(#clipbj52dgyxtC)"><use xlink:href="#ekilnI724o" opacity="1" fill-opacity="0" stroke="#ffdceb" stroke-width="2" stroke-opacity="1"></use></g></g><g><use xlink:href="#KsxV4Hqj6w" opacity="1" fill="#ffdceb" fill-opacity="1"></use></g><g><g clip-path="url(#clipXz4jIcB18P)"><use xlink:href="#z2ecksDrDr" opacity="1" fill-opacity="0" stroke="#ffdceb" stroke-width="2" stroke-opacity="1"></use></g></g><g><use xlink:href="#NaEckAAogx" opacity="1" fill="#ffdceb" fill-opacity="1"></use></g><g><use xlink:href="#fEav84gZav" opacity="1" fill="url(#gradientgvC3c1BfUb)"></use><g><use xlink:href="#fEav84gZav" opacity="1" fill-opacity="0" stroke="#5c717e" stroke-width="2" stroke-opacity="1"></use></g></g><g><use xlink:href="#p7uRJ57pwB" opacity="1" fill="url(#gradientpjnZ9wER7q)"></use><g><use xlink:href="#p7uRJ57pwB" opacity="1" fill-opacity="0" stroke="#5c717e" stroke-width="2" stroke-opacity="1"></use></g></g><g><use xlink:href="#M2ZH0fnLbz" opacity="1" fill="#5c717e" fill-opacity="1"></use></g><g><use xlink:href="#IdzKoPcvMl" opacity="1" fill="#5c717e" fill-opacity="1"></use></g><g><use xlink:href="#Ly0u594DkX" opacity="1" fill="#ff66aa" fill-opacity="1"></use><g><use xlink:href="#Ly0u594DkX" opacity="1" fill-opacity="0" stroke="#5c717e" stroke-width="1" stroke-opacity="1"></use></g></g><g><g><use xlink:href="#PdxDoTGWUF" opacity="1" fill-opacity="0" stroke="#5c717e" stroke-width="1.5" stroke-opacity="1"></use></g></g><g><use xlink:href="#t73QQwzPON" opacity="1" fill="#ff66aa" fill-opacity="1"></use><g><use xlink:href="#t73QQwzPON" opacity="1" fill-opacity="0" stroke="#5c717e" stroke-width="1" stroke-opacity="1"></use></g></g><g><use xlink:href="#jlY3wjXnHy" opacity="1" fill="#ff66aa" fill-opacity="1"></use><g><use xlink:href="#jlY3wjXnHy" opacity="1" fill-opacity="0" stroke="#5c717e" stroke-width="1" stroke-opacity="1"></use></g></g><g><use xlink:href="#fmhPmviDv2" opacity="1" fill="#ff66aa" fill-opacity="1"></use><g><use xlink:href="#fmhPmviDv2" opacity="1" fill-opacity="0" stroke="#5c717e" stroke-width="1" stroke-opacity="1"></use></g></g><g><use xlink:href="#tgi4CCiIy4" opacity="1" fill="#ff66aa" fill-opacity="1"></use><g><use xlink:href="#tgi4CCiIy4" opacity="1" fill-opacity="0" stroke="#5c717e" stroke-width="1" stroke-opacity="1"></use></g></g><g><use xlink:href="#Fp9CqdORhe" opacity="1" fill="#ff66aa" fill-opacity="1"></use><g><use xlink:href="#Fp9CqdORhe" opacity="1" fill-opacity="0" stroke="#5c717e" stroke-width="1" stroke-opacity="1"></use></g></g><g><use xlink:href="#JDC8UIq4kD" opacity="1" fill="#ff66aa" fill-opacity="1"></use><g><use xlink:href="#JDC8UIq4kD" opacity="1" fill-opacity="0" stroke="#5c717e" stroke-width="1" stroke-opacity="1"></use></g></g><g><use xlink:href="#O5jK6ZrPwZ" opacity="1" fill="#ff66aa" fill-opacity="1"></use><g><use xlink:href="#O5jK6ZrPwZ" opacity="1" fill-opacity="0" stroke="#5c717e" stroke-width="1" stroke-opacity="1"></use></g></g><g><use xlink:href="#fsP9xS4NP2" opacity="1" fill="#ffdceb" fill-opacity="1"></use></g><g><g clip-path="url(#clipbWTyJ98Vb)"><use xlink:href="#YtoPfvGGIM" opacity="1" fill-opacity="0" stroke="#ffdceb" stroke-width="2" stroke-opacity="1"></use></g></g><g><g><use xlink:href="#mlNK0Q9POw" opacity="1" fill-opacity="0" stroke="#5c717e" stroke-width="1" stroke-opacity="1"></use></g></g><g><use xlink:href="#nqiQaeI6Uo" opacity="1" fill="#ff66aa" fill-opacity="1"></use><g><use xlink:href="#nqiQaeI6Uo" opacity="1" fill-opacity="0" stroke="#5c717e" stroke-width="1" stroke-opacity="1"></use></g></g><g><use xlink:href="#l8ubD1IFIB" opacity="1" fill="#ff66aa" fill-opacity="1"></use><g><use xlink:href="#l8ubD1IFIB" opacity="1" fill-opacity="0" stroke="#5c717e" stroke-width="1" stroke-opacity="1"></use></g></g><g><g><use xlink:href="#h3iEfCqzjH" opacity="1" fill-opacity="0" stroke="#5c717e" stroke-width="1" stroke-opacity="1"></use></g></g><g><use xlink:href="#Beq4sLm2tP" opacity="1" fill="#ff66aa" fill-opacity="1"></use><g><use xlink:href="#Beq4sLm2tP" opacity="1" fill-opacity="0" stroke="#5c717e" stroke-width="1" stroke-opacity="1"></use></g></g></g></g></svg>