<svg id="share" viewBox="-10 -10 660 660"><path fill="#8899FE" stroke-width="0" d="M568.4809645302861 0.27240700400808937 L571.7073455075176 0.6088374880202154 L574.8935889218088 1.0751274969284081 L578.0369759258277 1.6685581834006769 L581.1347876722423 2.3864107001050314 L584.1843053137205 3.2259661997094815 L587.1828100029308 4.184505834882035 L590.1275828925403 5.259310758290703 L593.0159051352172 6.447662122603494 L595.84505788363 7.746841080488423 L598.6123222904467 9.154128784613487 L601.3149795083352 10.666806387646705 L603.9503106899631 12.282155042256084 L606.5155969879991 13.997455901109639 L609.0081195551104 15.809990116875365 L611.4251595439656 17.71703884222129 L613.7639981072329 19.715883229815407 L616.0219163975794 21.803804432325734 L618.1961955676743 23.978083602420277 L620.2841167701844 26.23600189276705 L622.2829611577788 28.574840456034064 L624.1900098831244 30.991880444889322 L626.0025440988902 33.48440301200083 L627.7178449577436 36.04968931003661 L629.333193612353 38.68502049166466 L630.8458712153863 41.38767770955299 L632.2531589195114 44.154942116369625 L633.5523378773967 46.98409486478256 L634.7406892417091 49.87241710745981 L635.815494165118 52.81718999706936 L636.7740338002902 55.815694686279286 L637.6135892998948 58.865212327757504 L638.3314418165996 61.963024074172125 L638.9248725030714 65.10641107819104 L639.3911625119796 68.29265449248237 L639.7275929959917 71.51903546971405 L639.9314451077757 74.78283516255415 L639.9999999999998 78.08133472367062 L639.9999999999998 561.9186652763292 L639.9314451077757 565.2171648374457 L639.7275929959916 568.4809645302861 L639.3911625119797 571.7073455075176 L638.9248725030715 574.8935889218088 L638.3314418165991 578.0369759258277 L637.6135892998947 581.1347876722423 L636.7740338002902 584.1843053137205 L635.815494165118 587.1828100029308 L634.7406892417089 590.1275828925403 L633.5523378773967 593.0159051352172 L632.2531589195113 595.84505788363 L630.8458712153862 598.6123222904467 L629.3331936123532 601.3149795083352 L627.7178449577435 603.9503106899631 L626.0025440988902 606.5155969879991 L624.1900098831244 609.0081195551104 L622.2829611577788 611.4251595439656 L620.2841167701845 613.7639981072329 L618.1961955676743 616.0219163975794 L616.0219163975794 618.1961955676743 L613.7639981072327 620.2841167701844 L611.4251595439657 622.2829611577788 L609.0081195551105 624.1900098831244 L606.515596987999 626.0025440988902 L603.9503106899631 627.7178449577436 L601.3149795083351 629.333193612353 L598.6123222904467 630.8458712153863 L595.8450578836301 632.2531589195114 L593.0159051352172 633.5523378773967 L590.1275828925403 634.7406892417091 L587.1828100029308 635.815494165118 L584.1843053137204 636.7740338002902 L581.1347876722423 637.6135892998948 L578.0369759258277 638.3314418165996 L574.8935889218087 638.9248725030714 L571.7073455075176 639.3911625119796 L568.4809645302861 639.7275929959917 L565.2171648374457 639.9314451077757 L561.9186652763292 639.9999999999998 L78.08133472367062 639.9999999999998 L74.78283516255414 639.9314451077757 L71.51903546971404 639.7275929959916 L68.29265449248237 639.3911625119797 L65.10641107819106 638.9248725030715 L61.963024074172125 638.3314418165991 L58.865212327757504 637.6135892998947 L55.815694686279286 636.7740338002902 L52.81718999706938 635.815494165118 L49.872417107459796 634.7406892417089 L46.98409486478256 633.5523378773967 L44.154942116369625 632.2531589195113 L41.38767770955299 630.8458712153862 L38.685020491664694 629.3331936123532 L36.0496893100366 627.7178449577435 L33.48440301200083 626.0025440988902 L30.99188044488932 624.1900098831244 L28.574840456034064 622.2829611577788 L26.23600189276705 620.2841167701845 L23.97808360242027 618.1961955676743 L21.803804432325734 616.0219163975794 L19.715883229815407 613.7639981072327 L17.71703884222129 611.4251595439657 L15.809990116875365 609.0081195551105 L13.997455901109635 606.515596987999 L12.282155042256083 603.9503106899631 L10.666806387646714 601.3149795083351 L9.154128784613487 598.6123222904467 L7.746841080488423 595.8450578836301 L6.447662122603494 593.0159051352172 L5.2593107582907015 590.1275828925403 L4.184505834882038 587.1828100029308 L3.2259661997094824 584.1843053137204 L2.3864107001050314 581.1347876722423 L1.6685581834006766 578.0369759258277 L1.0751274969284075 574.8935889218087 L0.6088374880202145 571.7073455075176 L0.27240700400808987 568.4809645302861 L0.06855489222402089 565.2171648374457 L0 561.9186652763292 L0 78.08133472367062 L0.06855489222402078 74.78283516255414 L0.27240700400808937 71.51903546971404 L0.6088374880202154 68.29265449248237 L1.0751274969284081 65.10641107819106 L1.6685581834006769 61.963024074172125 L2.3864107001050314 58.865212327757504 L3.2259661997094815 55.815694686279286 L4.184505834882035 52.81718999706938 L5.259310758290703 49.872417107459796 L6.447662122603494 46.98409486478256 L7.746841080488423 44.154942116369625 L9.154128784613487 41.38767770955299 L10.666806387646705 38.685020491664694 L12.282155042256084 36.0496893100366 L13.997455901109639 33.48440301200083 L15.809990116875365 30.99188044488932 L17.71703884222129 28.574840456034064 L19.715883229815407 26.23600189276705 L21.803804432325734 23.97808360242027 L23.978083602420277 21.803804432325734 L26.23600189276705 19.715883229815407 L28.574840456034064 17.71703884222129 L30.991880444889322 15.809990116875365 L33.48440301200083 13.997455901109635 L36.04968931003661 12.282155042256083 L38.68502049166466 10.666806387646714 L41.38767770955299 9.154128784613487 L44.154942116369625 7.746841080488423 L46.98409486478256 6.447662122603494 L49.87241710745981 5.2593107582907015 L52.81718999706936 4.184505834882038 L55.815694686279286 3.2259661997094824 L58.865212327757504 2.3864107001050314 L61.963024074172125 1.6685581834006766 L65.10641107819104 1.0751274969284075 L68.29265449248237 0.6088374880202145 L71.51903546971405 0.27240700400808987 L74.78283516255415 0.06855489222402089 L78.08133472367062 0 L561.9186652763292 0 L565.2171648374457 0.06855489222402078 L568.4809645302861 0.27240700400808937  Z M50.00000000000001 575.3846153846152 L589.9999999999998 575.3846153846152 L589.9999999999998 129.99999999999997 L50.00000000000001 129.99999999999997 L50.00000000000001 575.3846153846152  Z M68.33635252544401 44.97041291768576 L64.67017408420887 46.52091709836057 L61.32155898428694 48.600127641946315 L58.34329298107764 51.155258793043544 L55.78816182998041 54.13352479625283 L53.708951286394665 57.48213989617475 L52.15844710571988 61.14831833740993 L51.189435043355395 65.07927436455886 L50.8547008547007 69.22222222222214 L51.189435043355395 73.36517007988544 L52.15844710571986 77.29612610703438 L53.708951286394665 80.96230454826951 L55.788161829980424 84.31091964819147 L58.34329298107764 87.28918565140074 L61.32155898428693 89.84431680249796 L64.67017408420885 91.92352734608369 L68.33635252544404 93.47403152675857 L72.26730855259297 94.44304358912301 L76.41025641025624 94.77777777777769 L80.55320426791954 94.443043589123 L84.48416029506846 93.47403152675852 L88.15033873630362 91.9235273460837 L91.49895383622555 89.84431680249799 L94.47721983943484 87.28918565140074 L97.03235099053207 84.31091964819144 L99.11156153411777 80.9623045482695 L100.66206571479265 77.29612610703438 L101.6310777771571 73.36517007988544 L101.96581196581178 69.22222222222214 L101.63107777715709 65.07927436455886 L100.66206571479263 61.14831833740992 L99.11156153411778 57.48213989617476 L97.03235099053208 54.133524796252836 L94.47721983943484 51.155258793043544 L91.49895383622554 48.60012764194631 L88.15033873630361 46.52091709836057 L84.48416029506848 44.97041291768578 L80.55320426791954 44.0014008553213 L76.41025641025624 43.6666666666666 L72.26730855259295 44.0014008553213 L68.33635252544401 44.97041291768576  Z M208.33635252544403 44.97041291768576 L204.67017408420884 46.52091709836057 L201.32155898428695 48.600127641946315 L198.34329298107764 51.155258793043544 L195.78816182998042 54.13352479625283 L193.70895128639464 57.48213989617475 L192.15844710571992 61.14831833740993 L191.1894350433554 65.07927436455886 L190.8547008547007 69.22222222222214 L191.1894350433554 73.36517007988544 L192.15844710571986 77.29612610703438 L193.70895128639467 80.96230454826951 L195.78816182998042 84.31091964819147 L198.34329298107764 87.28918565140074 L201.32155898428695 89.84431680249796 L204.67017408420884 91.92352734608369 L208.33635252544406 93.47403152675857 L212.267308552593 94.44304358912301 L216.41025641025624 94.77777777777769 L220.55320426791954 94.443043589123 L224.48416029506856 93.47403152675852 L228.15033873630358 91.9235273460837 L231.49895383622558 89.84431680249799 L234.47721983943484 87.28918565140074 L237.03235099053205 84.31091964819144 L239.11156153411775 80.9623045482695 L240.66206571479267 77.29612610703438 L241.63107777715717 73.36517007988544 L241.96581196581187 69.22222222222214 L241.63107777715717 65.07927436455886 L240.66206571479262 61.14831833740992 L239.11156153411778 57.48213989617476 L237.0323509905321 54.133524796252836 L234.47721983943484 51.155258793043544 L231.49895383622552 48.60012764194631 L228.15033873630358 46.52091709836057 L224.48416029506856 44.97041291768578 L220.55320426791954 44.0014008553213 L216.41025641025624 43.6666666666666 L212.26730855259297 44.0014008553213 L208.33635252544403 44.97041291768576  Z M138.336352525444 44.97041291768576 L134.67017408420884 46.52091709836057 L131.32155898428695 48.600127641946315 L128.34329298107764 51.155258793043544 L125.78816182998041 54.13352479625283 L123.70895128639465 57.48213989617475 L122.1584471057199 61.14831833740993 L121.18943504335542 65.07927436455886 L120.8547008547007 69.22222222222214 L121.18943504335539 73.36517007988544 L122.15844710571986 77.29612610703438 L123.70895128639467 80.96230454826951 L125.78816182998042 84.31091964819147 L128.34329298107764 87.28918565140074 L131.32155898428695 89.84431680249796 L134.67017408420884 91.92352734608369 L138.33635252544403 93.47403152675857 L142.26730855259294 94.44304358912301 L146.41025641025624 94.77777777777769 L150.55320426791954 94.443043589123 L154.48416029506853 93.47403152675852 L158.15033873630358 91.9235273460837 L161.49895383622555 89.84431680249799 L164.47721983943484 87.28918565140074 L167.03235099053205 84.31091964819144 L169.11156153411775 80.9623045482695 L170.66206571479265 77.29612610703438 L171.63107777715717 73.36517007988544 L171.96581196581184 69.22222222222214 L171.63107777715715 65.07927436455886 L170.66206571479262 61.14831833740992 L169.11156153411778 57.48213989617476 L167.03235099053208 54.133524796252836 L164.47721983943484 51.155258793043544 L161.49895383622552 48.60012764194631 L158.15033873630355 46.52091709836057 L154.48416029506856 44.97041291768578 L150.55320426791954 44.0014008553213 L146.41025641025624 43.6666666666666 L142.26730855259297 44.0014008553213 L138.336352525444 44.97041291768576  Z "></path><path fill="#ECEEEF" stroke-width="0" d="M281.47183461260255 333.9346936764111 L284.40000137944094 335.12223900132875 L287.1503936800997 336.7848024562134 L289.6637533591857 338.9223840410651 L290.428 339.687 L227.6373599306596 402.47809675924464 L226.78621652843387 403.47886768814595 L226.12421610448047 404.57402039568603 L225.6513586587995 405.73995943720524 L225.36764419139092 406.95308936804406 L225.27307270225472 408.1898147435424 L225.3676441913909 409.4265401190408 L225.65135865879947 410.6396700498795 L226.12421610448055 411.8056090913989 L226.78621652843387 412.9007617989389 L227.6373599306596 413.90153272784016 L255.7565869302793 442.0207597274598 L256.7573578591806 442.8719031296856 L257.85251056672075 443.533903553639 L259.01844960823996 444.00676099931985 L260.2315795390787 444.29047546672854 L261.46830491457706 444.3850469558647 L262.70503029007546 444.2904754667286 L263.9181602209141 444.00676099931985 L265.0840992624335 443.5339035536391 L266.1792519699735 442.8719031296857 L267.1800228988748 442.0207597274598 L329.971 379.23 L330.7357356170542 379.9943662989336 L332.873317201906 382.5077259780197 L334.5358806567906 385.25811827867847 L335.7234259817081 388.1862850455167 L336.4359531766587 391.2329681231414 L336.67346224164226 394.3389093561594 L336.43595317665876 397.4448505891774 L335.72342598170815 400.49153366680207 L334.53588065679054 403.41970043364046 L332.87331720190593 406.17009273429926 L330.7357356170542 408.6834524133852 L268.20824023940344 471.21094779103606 L265.6948805603175 473.34852937588784 L262.94448825965867 475.01109283077255 L260.0163214928202 476.19863815568993 L256.9696384151955 476.91116535064054 L253.8636971821776 477.1486744156241 L250.75775594915967 476.9111653506406 L247.7110728715349 476.19863815569 L244.78290610469656 475.01109283077244 L242.03251380403776 473.3485293758878 L239.51915412495177 471.21094779103606 L198.44717186708323 430.1389655331675 L196.30959028223154 427.6256058540815 L194.64702682734693 424.87521355342284 L193.45948150242924 421.94704678658434 L192.7469543074787 418.9003637089596 L192.5094452424952 415.7944224759417 L192.74695430747875 412.6884812429238 L193.45948150242924 409.64179816529895 L194.6470268273469 406.7136313984606 L196.30959028223154 403.9632390978019 L198.44717186708323 401.44987941871585 L260.974667244734 338.9223840410651 L263.4880269238201 336.7848024562134 L266.23841922447883 335.1222390013288 L269.1665859913171 333.9346936764111 L272.2132690689419 333.2221664814606 L275.31921030195986 332.98465741647703 L278.42515153497783 333.2221664814606 L281.47183461260255 333.9346936764111  Z M392.2889271284648 223.11760116054893 L395.21709389530315 224.30514648546657 L397.967486195962 225.9677099403512 L400.480845875048 228.1052915252029 L441.5528281329165 269.1772737830714 L443.6904097177682 271.69063346215745 L445.35297317265287 274.4410257628163 L446.54051849757025 277.3691925296545 L447.25304569252097 280.4158756072793 L447.4905547575047 283.5218168402973 L447.2530456925211 286.62775807331525 L446.54051849757036 289.67444115093997 L445.3529731726528 292.60260791777836 L443.6904097177682 295.35300021843716 L441.5528281329165 297.8663598975231 L379.0253327552657 360.3938552751739 L376.51197307617974 362.5314368600256 L373.76158077552105 364.19400031491034 L370.8334140086825 365.3815456398278 L367.7867309310578 366.09407283477833 L364.68078969803986 366.3315818997619 L361.574848465022 366.09407283477844 L358.5281653873971 365.3815456398278 L355.5999986205588 364.1940003149102 L352.84960631990003 362.5314368600256 L350.336246640814 360.3938552751739 L349.572 359.629 L412.18197019219286 297.01881243414175 L413.03311359441864 296.0180415052405 L413.69511401837195 294.92288879770035 L414.1679714640529 293.7569497561811 L414.45168593146155 292.54381982534244 L414.54625742059767 291.307094449844 L414.45168593146144 290.0703690743456 L414.16797146405287 288.85723914350694 L413.69511401837207 287.6913001019878 L413.03311359441864 286.59614739444766 L412.18197019219286 285.59537646554634 L384.0627431925732 257.4761494659266 L383.0619722636719 256.6250060637009 L381.9668195561318 255.9630056397475 L380.8008805146125 255.49014819406648 L379.58775058377387 255.20643372665793 L378.3510252082754 255.11186223752173 L377.114299832777 255.20643372665793 L375.90116990193826 255.49014819406645 L374.7352308604192 255.96300563974754 L373.640078152879 256.6250060637008 L372.63930722397765 257.4761494659266 L310.029 320.087 L309.2642643829455 319.3218730173054 L307.1266827980938 316.8085133382194 L305.46411934320923 314.0581210375607 L304.27657401829146 311.1299542707222 L303.56404682334096 308.08327119309746 L303.32653775835746 304.9773299600796 L303.56404682334096 301.8713887270616 L304.2765740182915 298.82470564943685 L305.4641193432092 295.8965388825985 L307.12668279809384 293.1461465819397 L309.2642643829455 290.6327869028537 L371.7917597605963 228.1052915252029 L374.3051194396823 225.96770994035123 L377.05551174034116 224.30514648546662 L379.9836785071793 223.11760116054887 L383.03036158480415 222.40507396559838 L386.1363028178221 222.16756490061485 L389.2422440508401 222.4050739655984 L392.2889271284648 223.11760116054893  Z "></path><path fill="#ECEEEF" stroke-width="0" d="M374.57863851662273 296.83693282897286 C377.73102148782925 299.9893158001794 377.73102148782925 305.1079858263618 374.57863851662273 308.26036879756833 C364.9809995789053 317.85800773528575 288.19988807716607 394.639119237025 278.60224913944865 404.2367581747424 C275.4498661682421 407.38914114594894 270.33119614205964 407.38914114594894 267.1788131708531 404.2367581747424 C267.0030680021055 404.0610130059948 265.5971066521245 402.6550516560138 265.4213614833769 402.47930648726623 C262.2689785121704 399.3269235160597 262.2689785121704 394.2082534898772 265.4213614833769 391.0558705186707 C275.01900042109435 381.4582315809533 351.8001119228336 304.67712007921403 361.397750860551 295.0794811414966 C364.55013383175753 291.9270981702901 369.66880385793996 291.9270981702901 372.8211868291465 295.0794811414966 C372.9969319978941 295.25522631024427 374.4028933478751 296.66118766022527 374.57863851662273 296.83693282897286  Z "></path></svg>
