<svg id="lifehacker" viewBox="112 17 596.4 148.5"><path d="M134.9,163.8H112V18.5l22.9,1.5V163.8z"></path><path d="M160.9,28.6c7.2,0,13.1,5.9,13.1,13.1s-5.9,13.1-13.1,13.1c-7.2,0-13.1-5.9-13.1-13.1 C147.8,34.5,153.7,28.6,160.9,28.6z M172.3,163.8h-22.9V60.2l22.9,1.3C172.3,61.5,172.3,163.8,172.3,163.8z"></path><path d="M226.9,81v22.9h-17.1v59.9h-22.9V50c0-17.3,14.4-33,31.4-33c5.7,0,10.3,1.7,11.4,2.4l-0.9,22h-10.5 c-4.6,0-8.5,3.9-8.5,8.7v31L226.9,81L226.9,81z"></path><path d="M236.2,90.2c0-17.3,14-31.5,31.5-31.5c17.3,0,31.4,14.2,31.4,31.5v22.1c0,6.5-5.2,11.4-11.4,11.4H259v10 c0,4.8,3.9,8.7,8.7,8.7h22l0.7,19.4l-20.7,3.1c-19.9,3.3-33.6-13.8-33.6-31.2L236.2,90.2L236.2,90.2z M259,100.9h17.2V90.2 c0-4.8-3.9-8.7-8.5-8.7c-4.8,0-8.7,3.9-8.7,8.7V100.9z"></path><path d="M318.6,163.8V19.4h14.8v43.9c4.1-1.3,10.5-1.8,14.9-1.8c15.7,0,27.9,14.2,27.9,30.3v72.1h-14.4V91.7 c0-7.9-6.5-14.2-14.4-14.2h-14v86.3H318.6z"></path><path d="M430.2,89.3c0-8.3-3.9-14.9-14.4-13.8h0.2c-5.9,0.2-13.5,0.9-19.7,1.3c-0.2-5.3-0.4-7.4-0.6-11.4 c5-1.8,12.2-3.7,18.3-3.9c18.4-0.4,30.6,14.6,30.6,30.6V136c0,15.9-12.7,29-28.6,29s-29-13.1-29-29v-9c0-15.9,10.9-27.9,29-27.9 c6.8,0,10.3,0.7,14.2,1.8V89.3z M430.2,136v-24.9H416c-7.9,0-14.2,6.3-14.2,14.2V136c0,7.9,6.3,14.4,14.2,14.4 C423.9,150.4,430.2,143.9,430.2,136z"></path><path d="M485.9,61.5c15.9,0,29,12.9,29,29v1.8c-5.7,0.2-10.3,0.2-14.6,0.4v-2.2c0-7.7-6.5-14.2-14.4-14.2 c-7.7,0-14,6.5-14,14.2v46.1c0,8.1,6.3,14.2,14,14.2s14.2-5.9,14.4-13.7c7.2,0.6,14,0.9,14.6,0.9c-0.7,15.3-13.7,27.5-29,27.5 c-15.9,0-28.8-12.9-28.8-29V90.4C457.1,74.4,470,61.5,485.9,61.5z"></path><path d="M541.3,19.8v144.1h-14.8V19.8H541.3z M573,163.8L545,115c-2.8-4.8-2.8-5.3,0.6-11.1l24.7-41H587l-27.9,47.2 l30.1,53.7H573z"></path><path d="M592.3,90.6c0-16,12.9-29.1,29-29.1c15.9,0,28.8,13.1,28.8,29.1v22.7c0,4.2-3.3,7.4-7.4,7.4h-35.6v15.7 c0,7.9,6.3,14.4,14.2,14.4h18.6c0.2,4.8,0.4,8.1,0.7,11.4l-17.7,2.8c-18.1,3.1-30.6-12.5-30.6-28.6L592.3,90.6L592.3,90.6z M607.1,106.1h28.4V90.6c0-7.9-6.5-14.4-14.2-14.4c-7.9,0-14.2,6.5-14.2,14.4V106.1L607.1,106.1z"></path><path d="M677.8,163.8H663V91.9c0-16,12.5-31,31-30.6c6.3,0.2,10.1,1.7,14.4,3.7c-0.2,4.4-0.4,8.1-0.6,11.4l-16-0.4 c-7.7,0-14,8.3-14,15.9L677.8,163.8L677.8,163.8z"></path></svg>
