<svg version="1.1" xmlns="http://www.w3.org/2000/svg" xmlns:xlink="http://www.w3.org/1999/xlink" preserveAspectRatio="none" viewBox="0 0 1630 400" class="vector_bg_graphic"><path id="LrmGtdbLEY" fill="#f2f5f7" d="M0 300 C67.91666666666666 333.3333333333333 144.32291666666666 350 229.21875 350 C356.5625 350 483.90625 250 611.25 250 C738.59375 250 713.125 300 840.46875 300 C967.8125 300 1069.6875 225 1197.03125 225 C1281.9270833333333 225 1358.3333333333333 241.66666666666666 1426.25 275 L1426.25 400 L0 400 L0 300  Z " class="" style="transform: scaleY(1);"></path><path id="KdqfGvfzmF" fill="#e7ecf0" d="M0 400 C67.91666666666666 333.3333333333333 135.83333333333331 300 203.75 300 C305.625 300 382.03125 350 483.90625 350 C585.78125 350 636.71875 250 738.59375 250 C840.46875 250 815 300 967.8125 300 C1120.625 300 1222.5 200 1324.375 200 C1426.25 200 1451.71875 250 1528.125 250 C1579.0625 250 1613.0208333333333 233.33333333333331 1630 200 L1630 400 L0 400  Z "></path></svg>
