<svg id="product_hunt" viewBox="0 0 1025.2 240"><path d="M136,84L136,84l-34,0v36h34v0c9.9,0,18-8.1,18-18C154,92.1,145.9,84,136,84z"></path><path d="M120,0C53.7,0,0,53.7,0,120s53.7,120,120,120s120-53.7,120-120S186.3,0,120,0z M136,144L136,144l-34,0v36H78 V60l58,0v0c23.2,0,42,18.8,42,42C178,125.2,159.2,144,136,144z"></path><path d="M320,160V80h36.8c17.1,0,26.4,11.5,26.4,25.3c0,13.7-9.4,25.2-26.4,25.2h-20V160H320z M366.1,105.3 c0-6.6-5.1-10.6-11.7-10.6h-17.7v21.1h17.7C361,115.8,366.1,111.8,366.1,105.3z"></path><path d="M393.3,160v-58.3h15v7.7c4.1-5,11.1-9.1,18.2-9.1v14.6c-1.1-0.2-2.4-0.4-4.1-0.4c-5,0-11.6,2.8-14,6.5v39 H393.3z"></path><path d="M432.1,130.1c0-16.1,11.3-29.8,30-29.8c18.9,0,30.2,13.7,30.2,29.8S481,160,462.1,160 C443.4,160,432.1,146.2,432.1,130.1z M476.8,130.1c0-8.8-5.2-16.5-14.6-16.5c-9.3,0-14.5,7.7-14.5,16.5c0,9,5.2,16.6,14.5,16.6 C471.6,146.7,476.8,139,476.8,130.1z"></path><path d="M542.7,160v-8.7c-4.5,5.7-10.6,8.7-17.6,8.7c-14.3,0-25.2-10.8-25.2-29.9c0-18.5,10.7-29.8,25.2-29.8 c6.7,0,13.1,2.8,17.6,8.7V80h15.1v80H542.7z M542.7,140.2v-20.1c-2.5-3.8-7.9-6.5-12.8-6.5c-8.6,0-14.5,6.7-14.5,16.5 c0,9.9,5.9,16.6,14.5,16.6C534.8,146.7,540.2,144,542.7,140.2z"></path><path d="M611,160v-8.6c-3.9,4.2-10.7,8.6-20,8.6c-12.5,0-18.4-6.8-18.4-17.9v-40.4h15v34.5c0,7.9,4.1,10.5,10.5,10.5 c5.8,0,10.4-3.2,13-6.5v-38.5h15V160H611z"></path><path d="M637.2,130.1c0-17.4,12.7-29.8,30.2-29.8c11.7,0,18.7,5.1,22.5,10.3l-9.8,9.2c-2.7-4-6.8-6.1-12-6.1 c-9.1,0-15.4,6.6-15.4,16.5s6.4,16.6,15.4,16.6c5.2,0,9.3-2.4,12-6.2l9.8,9.2c-3.8,5.2-10.8,10.4-22.5,10.4 C649.9,160,637.2,147.6,637.2,130.1z"></path><path d="M702.8,144.3v-29.6h-9.4v-13.1h9.4V86.1h15v15.6h11.5v13.1h-11.5v25.6c0,3.7,1.9,6.4,5.2,6.4 c2.2,0,4.4-0.8,5.2-1.8l3.2,11.4c-2.2,2-6.2,3.7-12.5,3.7C708.3,160,702.8,154.6,702.8,144.3z"></path><path d="M825.1,160v-34.5H788V160h-16.7V80H788v30.9h37.1V80H842v80H825.1z"></path><path d="M895.5,160v-8.6c-3.9,4.2-10.7,8.6-20,8.6c-12.5,0-18.4-6.8-18.4-17.9v-40.4h15v34.5c0,7.9,4.1,10.5,10.5,10.5 c5.8,0,10.4-3.2,13-6.5v-38.5h15V160H895.5z"></path><path d="M963.7,160v-35.8c0-7.9-4.1-10.6-10.5-10.6c-5.9,0-10.4,3.3-13,6.6V160h-15v-58.3h15v7.3 c3.7-4.2,10.7-8.7,19.9-8.7c12.6,0,18.6,7.1,18.6,18.1V160H963.7z"></path><path d="M996.7,144.3v-29.6h-9.4v-13.1h9.4V86.1h15v15.6h11.5v13.1h-11.5v25.6c0,3.7,1.9,6.4,5.2,6.4 c2.2,0,4.4-0.8,5.2-1.8l3.2,11.4c-2.2,2-6.2,3.7-12.5,3.7C1002.2,160,996.7,154.6,996.7,144.3z"></path></svg>
