<svg id="tech_republic" viewBox="0 0 247.2 58.9"><path d="M2.7,15.8l-1.1,5.8c0,0,6.6,4.4,10.1,12.3c4.2,9.5,5,18.8,5,18.8l1.7-4.7c0,0-0.4-7.8-4.1-16.7    C9.6,19.6,2.7,15.8,2.7,15.8L2.7,15.8z"></path><path d="M0.9,25.1l-0.9,5c0,0,6,3.5,10.1,12.4c3.5,7.9,4.4,16.4,4.4,16.4l1.5-4.1c0,0-0.9-8.3-4.5-16.4    C6.9,28.2,0.9,25.1,0.9,25.1L0.9,25.1z"></path><path d="M10.7,20.2c0,0,2.8-8.5,9.8-8.3c6.9,0.1,9.7,6.1,16.2,5.5C46,16.5,52.4,4.5,52.4,4.5L51.5,0    c0,0-5.8,10.6-14.9,10.9c-6.1,0.2-8.2-4.7-14.7-5.2c-8.8-0.6-12,9.3-12,9.3L10.7,20.2L10.7,20.2z"></path><path d="M19.1,41.7c0,0,3.7-7.4,10.4-7.4c6.1,0.1,9.3,6.1,15.8,5.5c7.6-0.6,12.3-11.3,12.3-11.3l-0.9-3.9    c0,0-4,9.1-11.7,9.4c-6.1,0.2-8-4.8-14.4-5.3c-7.4-0.6-11.3,7.1-11.3,7.1L19.1,41.7L19.1,41.7z"></path><path d="M79.3,13l-0.1,4.5c-0.2-0.1-3.9-0.1-6.4-0.1c-0.4,4.8-0.6,12.1-0.7,16h-6.6c0.5-4.9,0.9-9.9,0.9-16    c-2,0-4.2,0.1-6.4,0.1l0.2-4.5H79.3L79.3,13z"></path><path d="M80.9,23.6c0.1-1.3,1.1-2.7,2.8-2.7c1.5,0,2.3,0.9,2.3,2.7H80.9L80.9,23.6z M91.4,26.5    c0.2-0.8,0.2-1.5,0.2-2.3c0-4.3-2.8-6.7-7.9-6.7c-8.2,0-8.9,7-8.9,8.6c0,6.1,4.3,7.7,9.3,7.7c1.8,0,3.6-0.2,5.4-0.6l0.7-4.4    c-1.8,0.5-3.6,1-5.4,1c-2.1,0-4.1-0.9-4.1-3.3H91.4L91.4,26.5z"></path><path d="M106,22.6c-1.3-0.4-2.6-0.7-4-0.7c-2.3,0-3.9,1.4-3.9,3.8c0,2.3,1.2,3.6,3.6,3.6c1.3,0,2.6-0.3,3.9-0.7    l-0.8,4.6c-1.5,0.4-3.1,0.6-4.6,0.6c-5.1,0-8-2.8-8-7.9c0-1.7,0.4-8.4,8.2-8.4c2,0,3.6,0.1,5.3,0.6L106,22.6L106,22.6z"></path><path d="M113.9,12.5c-0.1,1.2-0.4,5.2-0.6,7.4l0.1,0.1c1.4-2,3-2.6,6-2.6c3.1,0,5.7,1.2,5.7,5c0,0.8-0.4,7-0.4,10.9    h-6.1c0.2-2.7,0.4-5.5,0.4-8.2c0-1.5-0.4-2.9-2.3-2.9c-1.5,0-2.6,1.1-3.1,2.6c-0.5,1.7-0.7,5.2-0.8,8.5h-6.1c0.4-3.9,1-13.3,1-20.8    H113.9L113.9,12.5z"></path><path d="M133.3,16.9c-0.3,5.5-0.4,10.9-0.5,16.4h-6.5c0.7-6.5,1-12.5,1-20.8h11c1.5,0,7.4,0.1,7.4,5.5    c0,3.3-1.9,5-4.9,6.1c1.2,3.1,2.8,6.1,4.1,9.2H138c-1.1-3.9-2.6-7.8-4-11.7c0.5,0.1,1,0.1,1.5,0.1c1.8,0,3.9-0.7,3.9-2.8    c0-2.1-2-2.1-3.5-2.1H133.3L133.3,16.9z"></path><path d="M150.7,23.6c0.1-1.3,1.1-2.7,2.8-2.7c1.5,0,2.2,0.9,2.2,2.7H150.7L150.7,23.6z M161.2,26.5    c0.1-0.8,0.2-1.5,0.2-2.3c0-4.3-2.8-6.7-7.9-6.7c-8.3,0-9,7-9,8.6c0,6.1,4.3,7.7,9.3,7.7c1.8,0,3.6-0.2,5.4-0.6l0.8-4.4    c-1.8,0.5-3.6,1-5.5,1c-2,0-4.1-0.9-4.1-3.3H161.2L161.2,26.5z"></path><path d="M168.2,21.9c0.8-0.1,1.5-0.3,2.3-0.3c2.3,0,3.5,1.4,3.5,3.6c0,1.8-0.9,4.2-3.1,4.2c-2.1,0-3-2-3-3.9    C167.9,24.3,168.1,23.2,168.2,21.9L168.2,21.9z M167.4,40.4c0-2.8,0.1-5.8,0.3-8.7c1.5,1.3,3.4,2,5.5,2c4.5,0,6.7-4.2,6.7-8.2    c0-4.2-2.1-8.1-8.5-8.1c-3.5,0-6.3,0.3-9.1,0.8c0,7.4-0.4,14.8-1.1,22.2H167.4L167.4,40.4z"></path><path d="M192,31.3L192,31.3c-1.4,1.8-3.3,2.4-5.5,2.4c-4.3,0-5.5-2.1-5.5-4.7c0-1,0.6-8.1,0.6-11.2h6.1    c-0.1,2.8-0.6,5.5-0.6,8.2c0,1.5,0.5,2.8,2.3,2.8c1.5,0,2.4-1.2,2.8-2.6c0.4-1.8,0.4-5.3,0.5-8.4h6.1c-0.5,5.2-0.7,10.4-0.9,15.5    H192V31.3L192,31.3z"></path><path d="M205.8,21.9c0.7-0.1,1.5-0.3,2.3-0.3c2.3,0,3.4,1.4,3.4,3.6c0,1.8-0.9,4.2-3.1,4.2c-2.1,0-3-2-3-3.9    C205.5,24.3,205.6,23.2,205.8,21.9L205.8,21.9z M205,31.4L205,31.4c1.3,1.6,2.9,2.3,5,2.3c5,0,7.4-4.2,7.4-8.8    c0-4.9-2.8-7.5-7.7-7.5c-0.6,0-1.2,0-1.8,0.1c-0.7,0.1-1.2,0.1-1.8,0.3c0.1-2.2,0.2-3.7,0.4-5.3h-6.2c-0.1,6.9-0.5,13.9-1,20.8h5.7    V31.4L205,31.4z"></path><path d="M225.2,12.5c-0.4,3.5-1,15.3-1.2,20.8h-6.2c0.7-6.9,0.9-13.9,1.2-20.8H225.2L225.2,12.5z"></path><path d="M225.6,33.3c0.5-4.7,0.7-9.3,0.8-15.5h6.3c-0.6,5.2-0.6,10.4-0.6,15.5H225.6L225.6,33.3z M226.6,15.8l0.1-3.6    h6.1l-0.1,3.6H226.6L226.6,15.8z"></path><path d="M247.2,22.6c-1.3-0.4-2.6-0.7-3.9-0.7c-2.4,0-3.9,1.4-3.9,3.8c0,2.3,1.2,3.6,3.6,3.6c1.3,0,2.6-0.3,3.9-0.7    l-0.8,4.6c-1.5,0.4-3.1,0.6-4.6,0.6c-5.1,0-8-2.8-8-7.9c0-1.7,0.4-8.4,8.2-8.4c2,0,3.6,0.1,5.3,0.6L247.2,22.6L247.2,22.6z"></path></svg>
