<svg xmlns="http://www.w3.org/2000/svg" xmlns:xlink="http://www.w3.org/1999/xlink" width="494px" height="166px" viewBox="0 0 494 166" version="1.1">
    <title>Vectr</title>
    <desc>Vectr Logo.</desc>
    <g id="Page-1" stroke="none" stroke-width="1" fill="none" fill-rule="evenodd">
        <g id="vectr-logo" fill="#FFFFFF">
            <g id="Group">
                <g transform="translate(117.000000, 19.000000)" id="Shape">
                    <path d="M140.031812,44.5286012 L140.209912,44.4592157 C129.098142,18.325437 103.18914,0 73,0 C32.6832113,0 0,32.6832113 0,73 C0,113.316789 32.6832113,146 73,146 C106.100438,146 134.055422,123.969703 143.002348,93.771714 L143.002348,93.771714 L103.131793,83.8688831 C98.0341921,95.1498772 86.6838438,103 73.5,103 C67.7382491,103 62.3266889,101.500656 57.6342003,98.8708485 L140.12529,44.6005793 L140.031812,44.5286012 L140.031812,44.5286012 Z M88.8060525,41.8226494 C84.2449893,39.3831657 79.0340226,38 73.5,38 C55.5507447,38 41,52.5507447 41,70.5 C41,72.9775802 41.2772348,75.3904087 41.8023749,77.7091559 L88.8060525,41.8226494 L88.8060525,41.8226494 Z"/>
                </g>
                <g id="C" transform="translate(234.000000, 19.000000)">
                    <path d="M73,146 C32.6832113,146 0,113.316789 0,73 C0,32.6832113 32.6832113,0 73,0 C93.9623565,0 112.861061,8.83553925 126.175131,22.9856351 L94.7123253,48.8763735 C89.0196239,43.9678995 81.6064072,41 73.5,41 C55.5507447,41 41,55.5507447 41,73.5 C41,91.4492553 55.5507447,106 73.5,106 C83.6468242,106 92.7075828,101.350004 98.6675639,94.0647226 L133.396886,114.015381 C120.261064,133.320905 98.1112134,146 73,146 Z" id="Shape"/>
                </g>
                <path d="M353.155073,10.467194 L353.155073,34.5630918 L339,34.5630918 L339,72.3761316 L351.941154,72.3761316 L351.941154,140.623544 C351.941154,140.623544 351.941154,157.6634 374.146049,162.999993 C396.350944,168.336587 411.263626,164 411.263626,164 L411.263626,125.247077 L401.074728,123.247077 L401.074728,73.4768379 L415,73.4768379 L415,35.1138608 L400.533502,35.1138608 L399.769495,0 L353.155073,10.467194 L353.155073,10.467194 Z" id="Shape"/>
                <g id="V" transform="translate(0.000000, 1.000000)">
                    <path d="M0.56626156,0.263228416 L46.4077113,0.263228416 L74.1895711,72.4870123 L85,72.4870123 L61.4227565,127.56594 L48.9622195,127.56594 L0.56626156,0.263228416 L0.56626156,0.263228416 Z" id="Shape"/>
                    <path d="M168,1 L122.941876,1 L61.304831,145.609451 L53.9769034,145.609451 L61.3048312,164 L95.4663697,164 L168,1 L168,1 Z" id="Shape"/>
                </g>
                <path d="M470.113634,72.5649316 C478.118957,65.7438416 493.218172,63.005369 493.218172,63.005369 L493.218172,20.0603077 C493.218172,20.0603077 483.643153,20.0794125 474.548495,22.7566974 C465.453836,25.4339816 456.639732,30.8282669 456.639732,30.8282669 L456.639732,19.3392334 L415,30.7594109 L415,164.839233 L458.186087,164.839233 L458.186087,103.586584 C458.186087,90.586584 462.108311,79.3860219 470.113634,72.5649316 L470.113634,72.5649316 Z" id="Shape"/>
            </g>
        </g>
    </g>
</svg>
